<svg xmlns="http://www.w3.org/2000/svg" viewBox="0 0 181.88 338.68">
  <defs>
    <style>
      .cls-1 {
        fill: #a770ef;
      }

      .cls-2, .cls-3, .cls-8 {
        fill: none;
        stroke: #351b52;
        stroke-miterlimit: 10;
        stroke-width: 0.17px;
      }

      .cls-3 {
        stroke-dasharray: 1.36 1.36;
      }

      .cls-4 {
        fill: #8cff80;
      }

      .cls-5 {
        fill: #fdb99b;
      }

      .cls-6 {
        fill: #62398f;
      }

      .cls-7 {
        fill: #c1f7fc;
      }

      .cls-8 {
        stroke-dasharray: 1.33 1.33;
      }
    </style>
  </defs>
  <title>data</title>
  <g id="sfondi-col">
    <rect class="cls-1" x="-5.48" y="-13.47" width="192.5" height="364.16"/>
  </g>
  <g id="_Layer_" data-name="&lt;Layer&gt;">
    <g>
      <g>
        <line class="cls-2" x1="91.01" y1="206.3" x2="91.01" y2="205.62"/>
        <line class="cls-3" x1="91.01" y1="204.26" x2="91.01" y2="11.32"/>
        <line class="cls-2" x1="91.01" y1="10.64" x2="91.01" y2="9.96"/>
      </g>
      <polygon class="cls-4" points="95.06 70.25 91.08 72.55 87.09 70.25 87.09 65.64 91.08 63.34 95.06 65.64 95.06 70.25"/>
      <polygon class="cls-5" points="95.06 31.12 91.08 33.43 87.09 31.12 87.09 26.52 91.08 24.22 95.06 26.52 95.06 31.12"/>
      <polygon class="cls-4" points="95.06 50.69 91.08 52.99 87.09 50.69 87.09 46.08 91.08 43.78 95.06 46.08 95.06 50.69"/>
      <polygon class="cls-6" points="95.06 11.64 91.08 13.94 87.09 11.64 87.09 7.03 91.08 4.73 95.06 7.03 95.06 11.64"/>
      <polygon class="cls-4" points="95.06 89.81 91.08 92.11 87.09 89.81 87.09 85.21 91.08 82.9 95.06 85.21 95.06 89.81"/>
      <polygon class="cls-7" points="120.16 129.2 116.17 131.5 112.18 129.2 112.18 124.59 116.17 122.29 120.16 124.59 120.16 129.2"/>
      <polygon class="cls-4" points="95.06 109.39 91.08 111.69 87.09 109.39 87.09 104.78 91.08 102.48 95.06 104.78 95.06 109.39"/>
      <polygon class="cls-7" points="120.16 148.76 116.17 151.06 112.18 148.76 112.18 144.15 116.17 141.85 120.16 144.15 120.16 148.76"/>
      <polygon class="cls-5" points="95.06 187.65 91.08 189.96 87.09 187.65 87.09 183.05 91.08 180.75 95.06 183.05 95.06 187.65"/>
      <polygon class="cls-4" points="95.06 168.09 91.08 170.39 87.09 168.09 87.09 163.49 91.08 161.18 95.06 163.49 95.06 168.09"/>
      <polygon class="cls-4" points="95.06 207.22 91.08 209.52 87.09 207.22 87.09 202.61 91.08 200.31 95.06 202.61 95.06 207.22"/>
      <g>
        <line class="cls-2" x1="112.13" y1="126.42" x2="111.45" y2="126.42"/>
        <line class="cls-8" x1="110.12" y1="126.42" x2="92.2" y2="126.42"/>
        <line class="cls-2" x1="91.54" y1="126.42" x2="90.85" y2="126.42"/>
      </g>
      <g>
        <line class="cls-2" x1="112.13" y1="146.74" x2="111.45" y2="146.74"/>
        <line class="cls-8" x1="110.12" y1="146.74" x2="92.2" y2="146.74"/>
        <line class="cls-2" x1="91.54" y1="146.74" x2="90.85" y2="146.74"/>
      </g>
    </g>
  </g>
</svg>
