<svg xmlns="http://www.w3.org/2000/svg" viewBox="0 0 181.88 338.68">
  <defs>
    <style>
      .cls-1 {
        fill: #a770ef;
      }

      .cls-2, .cls-3, .cls-4, .cls-5, .cls-6, .cls-7 {
        fill: none;
        stroke: #351b52;
        stroke-miterlimit: 10;
        stroke-width: 0.17px;
      }

      .cls-3 {
        stroke-dasharray: 1.37 1.37;
      }

      .cls-4 {
        stroke-dasharray: 1.36 1.36;
      }

      .cls-5 {
        stroke-dasharray: 1.59 1.59;
      }

      .cls-6 {
        stroke-dasharray: 1.34 1.34;
      }

      .cls-7 {
        stroke-dasharray: 1.38 1.38;
      }

      .cls-8 {
        fill: #62398f;
      }

      .cls-9 {
        fill: #fdb99b;
      }

      .cls-10 {
        fill: #8cff80;
      }

      .cls-11 {
        fill: #351b52;
      }

      .cls-12 {
        fill: #f1fbfc;
      }
    </style>
  </defs>
  <title>data</title>
  <g id="sfondi-col">
    <rect class="cls-1" x="-5.77" y="-11.06" width="192.5" height="364.16"/>
  </g>
  <g id="_Layer_" data-name="&lt;Layer&gt;">
    <g>
      <g>
        <line class="cls-2" x1="91" y1="8.33" x2="91" y2="9.01"/>
        <line class="cls-3" x1="91" y1="10.38" x2="91" y2="105.58"/>
        <line class="cls-2" x1="91" y1="106.27" x2="91" y2="106.95"/>
      </g>
      <g>
        <line class="cls-2" x1="53.1" y1="210.41" x2="53.1" y2="209.73"/>
        <line class="cls-4" x1="53.1" y1="208.37" x2="53.1" y2="103.09"/>
        <line class="cls-2" x1="53.1" y1="102.41" x2="53.1" y2="101.73"/>
      </g>
      <g>
        <line class="cls-2" x1="72.78" y1="107.85" x2="72.78" y2="107.17"/>
        <line class="cls-5" x1="72.78" y1="105.58" x2="72.78" y2="103.21"/>
        <line class="cls-2" x1="72.78" y1="102.41" x2="72.78" y2="101.73"/>
      </g>
      <g>
        <line class="cls-2" x1="112.89" y1="107.85" x2="112.89" y2="107.17"/>
        <line class="cls-5" x1="112.89" y1="105.58" x2="112.89" y2="103.21"/>
        <line class="cls-2" x1="112.89" y1="102.41" x2="112.89" y2="101.73"/>
      </g>
      <g>
        <line class="cls-2" x1="111.98" y1="101.92" x2="111.3" y2="101.92"/>
        <line class="cls-6" x1="109.96" y1="101.92" x2="54.48" y2="101.92"/>
        <line class="cls-2" x1="53.81" y1="101.92" x2="53.13" y2="101.92"/>
      </g>
      <g>
        <line class="cls-2" x1="66.77" y1="132.94" x2="66.09" y2="132.94"/>
        <line class="cls-7" x1="64.72" y1="132.94" x2="54.4" y2="132.94"/>
        <line class="cls-2" x1="53.71" y1="132.94" x2="53.03" y2="132.94"/>
      </g>
      <g>
        <line class="cls-2" x1="66.77" y1="153.1" x2="66.09" y2="153.1"/>
        <line class="cls-7" x1="64.72" y1="153.1" x2="54.4" y2="153.1"/>
        <line class="cls-2" x1="53.71" y1="153.1" x2="53.03" y2="153.1"/>
      </g>
      <g>
        <line class="cls-2" x1="66.77" y1="173.12" x2="66.09" y2="173.12"/>
        <line class="cls-7" x1="64.72" y1="173.12" x2="54.4" y2="173.12"/>
        <line class="cls-2" x1="53.71" y1="173.12" x2="53.03" y2="173.12"/>
      </g>
      <rect class="cls-8" x="87.75" y="6.15" width="6.51" height="6.51" transform="translate(19.51 66.5) rotate(-44.51)"/>
      <rect class="cls-9" x="87.75" y="46.41" width="6.51" height="6.51" transform="translate(-8.71 78.05) rotate(-44.51)"/>
      <rect class="cls-9" x="87.75" y="86.66" width="6.51" height="6.51" transform="translate(-36.93 89.6) rotate(-44.51)"/>
      <g>
        <rect class="cls-10" x="88.09" y="66.87" width="5.83" height="5.83" transform="translate(-22.82 83.84) rotate(-44.52)"/>
        <path class="cls-11" d="M91,66.15l3.61,3.67L91,73.43l-3.61-3.67L91,66.15m0-1L86.4,69.75,91,74.4l4.64-4.57L91,65.19Z"/>
      </g>
      <g>
        <rect class="cls-10" x="50.16" y="109.89" width="5.83" height="5.83" transform="translate(-63.86 69.58) rotate(-44.51)"/>
        <path class="cls-11" d="M53.11,109.17l3.61,3.67L53,116.45l-3.61-3.67,3.67-3.61m0-1-4.64,4.57L53,117.42l4.64-4.57-4.57-4.64Z"/>
      </g>
      <rect class="cls-12" x="69.61" y="109.41" width="6.51" height="6.51" transform="translate(-58.08 83.41) rotate(-44.51)"/>
      <rect class="cls-12" x="87.82" y="109.28" width="6.51" height="6.51" transform="translate(-52.95 97.86) rotate(-45.2)"/>
      <rect class="cls-12" x="109.39" y="109.29" width="6.51" height="6.51" transform="translate(-46.59 113.17) rotate(-45.2)"/>
      <g>
        <rect class="cls-10" x="88.09" y="26.62" width="5.83" height="5.83" transform="translate(5.41 72.29) rotate(-44.52)"/>
        <path class="cls-11" d="M91,25.89l3.61,3.67L91,33.18l-3.61-3.67L91,25.89m0-1L86.4,29.5,91,34.14l4.64-4.57L91,24.93Z"/>
      </g>
      <path class="cls-10" d="M72.27,149.27l3.61,3.67-3.67,3.61-3.61-3.67,3.67-3.61m0-1-4.64,4.57,4.57,4.64L76.84,153l-4.57-4.64Z"/>
      <rect class="cls-12" x="49.85" y="189.92" width="6.51" height="6.51" transform="translate(-120.19 92.66) rotate(-44.51)"/>
      <path class="cls-10" d="M72.27,169.4l3.61,3.67-3.67,3.61L68.6,173l3.67-3.61m0-1L67.63,173l4.57,4.64,4.64-4.57-4.57-4.64Z"/>
      <path class="cls-10" d="M72.27,129.15l3.61,3.67-3.67,3.61-3.61-3.67,3.67-3.61m0-1-4.64,4.57,4.57,4.64,4.64-4.57-4.57-4.64Z"/>
      <rect class="cls-10" x="49.85" y="210.38" width="6.51" height="6.51" transform="translate(-134.54 98.53) rotate(-44.51)"/>
    </g>
  </g>
</svg>
