<svg xmlns="http://www.w3.org/2000/svg" viewBox="0 0 181.88 338.68">
  <defs>
    <style>
      .cls-1, .cls-10, .cls-11, .cls-12, .cls-2, .cls-3, .cls-5 {
        fill: none;
        stroke: #351b52;
        stroke-miterlimit: 10;
        stroke-width: 0.17px;
      }

      .cls-2 {
        stroke-dasharray: 1.37 1.37;
      }

      .cls-3 {
        stroke-dasharray: 1.14 1.14;
      }

      .cls-4 {
        fill: #8cff80;
      }

      .cls-5 {
        stroke-dasharray: 1.35 1.35;
      }

      .cls-6 {
        fill: #351b52;
      }

      .cls-7 {
        fill: #fdb99b;
      }

      .cls-8 {
        fill: #62398f;
      }

      .cls-9 {
        fill: #c1f7fc;
      }

      .cls-10 {
        stroke-dasharray: 1.33 1.33;
      }

      .cls-11 {
        stroke-dasharray: 1.59 1.59;
      }

      .cls-12 {
        stroke-dasharray: 1.22 1.22;
      }
    </style>
  </defs>
  <title>data</title>
  <g id="_Layer_" data-name="&lt;Layer&gt;">
    <g>
      <g>
        <line class="cls-1" x1="100.36" y1="145.85" x2="100.36" y2="145.17"/>
        <line class="cls-2" x1="100.36" y1="143.8" x2="100.36" y2="117.08"/>
        <line class="cls-1" x1="100.36" y1="116.39" x2="100.36" y2="115.71"/>
      </g>
      <g>
        <line class="cls-1" x1="100.22" y1="107.16" x2="100.22" y2="106.48"/>
        <line class="cls-3" x1="100.22" y1="105.33" x2="100.22" y2="101.33"/>
        <line class="cls-1" x1="100.22" y1="100.75" x2="100.22" y2="100.07"/>
      </g>
      <polygon class="cls-4" points="104.14 132.88 100.15 135.18 96.16 132.88 96.16 128.28 100.15 125.97 104.14 128.28 104.14 132.88"/>
      <polygon class="cls-4" points="104.14 152.44 100.15 154.75 96.16 152.44 96.16 147.84 100.15 145.54 104.14 147.84 104.14 152.44"/>
      <path class="cls-4" d="M100.15,107.28l3.31,1.91V113l-3.31,1.91L96.84,113v-3.82l3.31-1.91m0-.79-4,2.3v4.6l4,2.3,4-2.3v-4.6l-4-2.3Z"/>
      <g>
        <line class="cls-1" x1="90.93" y1="12.9" x2="90.93" y2="13.58"/>
        <line class="cls-5" x1="90.93" y1="14.94" x2="90.93" y2="98.07"/>
        <line class="cls-1" x1="90.93" y1="98.74" x2="90.93" y2="99.42"/>
      </g>
      <g>
        <polygon class="cls-4" points="87.27 70.06 87.27 65.85 90.92 63.75 94.57 65.85 94.57 70.06 90.92 72.17 87.27 70.06"/>
        <path class="cls-6" d="M90.92,64.14,94.23,66v3.82l-3.31,1.91-3.31-1.91V66l3.31-1.91m0-.79-4,2.3v4.6l4,2.3,4-2.3v-4.6l-4-2.3Z"/>
      </g>
      <polygon class="cls-7" points="94.91 31.14 90.92 33.44 86.93 31.14 86.93 26.53 90.92 24.23 94.91 26.53 94.91 31.14"/>
      <polygon class="cls-4" points="94.91 50.7 90.92 53 86.93 50.7 86.93 46.09 90.92 43.79 94.91 46.09 94.91 50.7"/>
      <polygon class="cls-8" points="94.91 11.65 90.92 13.95 86.93 11.65 86.93 7.04 90.92 4.74 94.91 7.04 94.91 11.65"/>
      <polygon class="cls-4" points="94.91 89.82 90.92 92.13 86.93 89.82 86.93 85.22 90.92 82.92 94.91 85.22 94.91 89.82"/>
      <polygon class="cls-9" points="113.73 175.44 109.74 177.74 105.75 175.43 105.75 170.83 109.74 168.53 113.73 170.83 113.73 175.44"/>
      <polygon class="cls-4" points="95.04 175.44 91.05 177.74 87.06 175.43 87.06 170.83 91.05 168.53 95.04 170.83 95.04 175.44"/>
      <polygon class="cls-9" points="85.44 113.41 81.45 115.71 77.46 113.4 77.46 108.8 81.45 106.5 85.44 108.8 85.44 113.41"/>
      <g>
        <line class="cls-1" x1="100.18" y1="100.1" x2="99.5" y2="100.1"/>
        <line class="cls-10" x1="98.18" y1="100.1" x2="82.9" y2="100.1"/>
        <line class="cls-1" x1="82.23" y1="100.1" x2="81.55" y2="100.1"/>
      </g>
      <g>
        <line class="cls-1" x1="81.42" y1="106.19" x2="81.42" y2="105.51"/>
        <line class="cls-11" x1="81.42" y1="103.93" x2="81.42" y2="101.55"/>
        <line class="cls-1" x1="81.42" y1="100.75" x2="81.42" y2="100.07"/>
      </g>
      <g>
        <line class="cls-1" x1="109.65" y1="162.31" x2="108.97" y2="162.31"/>
        <line class="cls-10" x1="107.65" y1="162.31" x2="92.37" y2="162.31"/>
        <line class="cls-1" x1="91.7" y1="162.31" x2="91.02" y2="162.31"/>
      </g>
      <g>
        <line class="cls-1" x1="90.89" y1="168.4" x2="90.89" y2="167.72"/>
        <line class="cls-11" x1="90.89" y1="166.14" x2="90.89" y2="163.76"/>
        <line class="cls-1" x1="90.89" y1="162.97" x2="90.89" y2="162.29"/>
      </g>
      <g>
        <line class="cls-1" x1="109.74" y1="168.4" x2="109.74" y2="167.72"/>
        <line class="cls-11" x1="109.74" y1="166.14" x2="109.74" y2="163.76"/>
        <line class="cls-1" x1="109.74" y1="162.97" x2="109.74" y2="162.29"/>
      </g>
      <g>
        <line class="cls-1" x1="100.36" y1="162.18" x2="100.36" y2="161.5"/>
        <line class="cls-12" x1="100.36" y1="160.28" x2="100.36" y2="156"/>
        <line class="cls-1" x1="100.36" y1="155.39" x2="100.36" y2="154.71"/>
      </g>
    </g>
  </g>
</svg>
