<svg xmlns="http://www.w3.org/2000/svg" viewBox="0 0 181.88 338.68">
  <defs>
    <style>
      .cls-1, .cls-2 {
        fill: none;
        stroke: #351b52;
        stroke-miterlimit: 10;
        stroke-width: 0.17px;
      }

      .cls-2 {
        stroke-dasharray: 1.36 1.36;
      }

      .cls-3 {
        fill: #8cff80;
      }

      .cls-4 {
        fill: #fdb99b;
      }

      .cls-5 {
        fill: #62398f;
      }

      .cls-6 {
        fill: #ff7f4c;
      }

      .cls-7 {
        fill: #351b52;
      }
    </style>
  </defs>
  <title>data</title>
  <g id="_Layer_" data-name="&lt;Layer&gt;">
    <g>
      <g>
        <line class="cls-1" x1="91.07" y1="12.19" x2="91.07" y2="12.87"/>
        <line class="cls-2" x1="91.07" y1="14.23" x2="91.07" y2="229.09"/>
        <line class="cls-1" x1="91.07" y1="229.77" x2="91.07" y2="230.45"/>
      </g>
      <polygon class="cls-3" points="95.48 70.4 92.95 73.5 88.96 73.46 86.5 70.3 87.43 66.42 91.05 64.72 94.63 66.5 95.48 70.4"/>
      <polygon class="cls-4" points="95.48 30.17 92.95 33.27 88.96 33.22 86.5 30.07 87.43 26.18 91.05 24.49 94.63 26.26 95.48 30.17"/>
      <polygon class="cls-3" points="95.48 50.29 92.95 53.38 88.96 53.34 86.5 50.19 87.43 46.3 91.05 44.61 94.63 46.38 95.48 50.29"/>
      <polygon class="cls-5" points="95.48 10.29 92.95 13.38 88.96 13.34 86.5 10.19 87.43 6.3 91.05 4.61 94.63 6.38 95.48 10.29"/>
      <polygon class="cls-3" points="95.48 90.52 92.95 93.62 88.96 93.57 86.5 90.42 87.43 86.53 91.05 84.84 94.63 86.61 95.48 90.52"/>
      <polygon class="cls-4" points="95.48 130.75 92.95 133.85 88.96 133.81 86.5 130.65 87.43 126.77 91.05 125.07 94.63 126.85 95.48 130.75"/>
      <polygon class="cls-3" points="95.48 211.22 92.95 214.32 88.96 214.27 86.5 211.12 87.43 207.24 91.05 205.54 94.63 207.31 95.48 211.22"/>
      <g>
        <polygon class="cls-3" points="89.12 173.7 86.87 170.81 87.72 167.24 91.05 165.69 94.33 167.31 95.11 170.9 92.79 173.74 89.12 173.7"/>
        <path class="cls-6" d="M91,166.06l3,1.48.71,3.27-2.11,2.59-3.34,0-2.05-2.63.78-3.25,3-1.42m0-.75L87.43,167l-.93,3.89L89,174l4,0,2.53-3.1-.85-3.91-3.58-1.77Z"/>
      </g>
      <polygon class="cls-4" points="95.48 191.1 92.95 194.2 88.96 194.16 86.5 191 87.43 187.12 91.05 185.42 94.63 187.2 95.48 191.1"/>
      <polygon class="cls-3" points="95.48 150.87 92.95 153.97 88.96 153.92 86.5 150.77 87.43 146.88 91.05 145.19 94.63 146.96 95.48 150.87"/>
      <g>
        <polygon class="cls-3" points="89.12 113.35 86.87 110.46 87.72 106.89 91.05 105.33 94.33 106.96 95.11 110.55 92.79 113.39 89.12 113.35"/>
        <path class="cls-7" d="M91,105.71l3,1.48.71,3.27L92.63,113l-3.34,0-2.05-2.63.78-3.25,3-1.42m0-.75-3.62,1.69-.93,3.89L89,113.69l4,0,2.53-3.1-.85-3.91L91.05,105Z"/>
      </g>
      <polygon class="cls-7" points="95.48 231.34 92.95 234.43 88.96 234.39 86.5 231.24 87.43 227.35 91.05 225.66 94.63 227.43 95.48 231.34"/>
    </g>
  </g>
</svg>
