<svg xmlns="http://www.w3.org/2000/svg" viewBox="0 0 181.88 338.68">
  <defs>
    <style>
      .cls-1, .cls-2, .cls-3 {
        fill: none;
        stroke: #351b52;
        stroke-miterlimit: 10;
        stroke-width: 0.17px;
      }

      .cls-2 {
        stroke-dasharray: 1.36 1.36;
      }

      .cls-3 {
        stroke-dasharray: 1.38 1.38;
      }

      .cls-4 {
        fill: #8cff80;
      }

      .cls-5 {
        fill: #fdb99b;
      }

      .cls-6 {
        fill: #62398f;
      }

      .cls-7 {
        fill: #351b52;
      }

      .cls-8 {
        fill: #ff7f4c;
      }
    </style>
  </defs>
  <title>data</title>
  <g id="forme-sintetizz">
    <g>
      <g>
        <line class="cls-1" x1="90.93" y1="11.74" x2="90.93" y2="12.42"/>
        <line class="cls-2" x1="90.93" y1="13.79" x2="90.93" y2="160.52"/>
        <line class="cls-1" x1="90.93" y1="161.2" x2="90.93" y2="161.88"/>
      </g>
      <g>
        <line class="cls-1" x1="90.93" y1="170.03" x2="90.93" y2="170.71"/>
        <line class="cls-3" x1="90.93" y1="172.08" x2="90.93" y2="226.56"/>
        <line class="cls-1" x1="90.93" y1="227.25" x2="90.93" y2="227.93"/>
      </g>
      <polygon class="cls-4" points="94.91 70.28 90.93 72.58 86.94 70.28 86.94 65.67 90.93 63.37 94.91 65.67 94.91 70.28"/>
      <polygon class="cls-5" points="94.91 31.15 90.93 33.45 86.94 31.15 86.94 26.55 90.93 24.24 94.91 26.55 94.91 31.15"/>
      <polygon class="cls-4" points="94.91 50.71 90.93 53.02 86.94 50.71 86.94 46.11 90.93 43.81 94.91 46.11 94.91 50.71"/>
      <polygon class="cls-6" points="94.91 11.53 90.93 13.83 86.94 11.53 86.94 6.92 90.93 4.62 94.91 6.92 94.91 11.53"/>
      <polygon class="cls-4" points="94.91 89.84 90.93 92.14 86.94 89.84 86.94 85.23 90.93 82.93 94.91 85.23 94.91 89.84"/>
      <g>
        <polygon class="cls-4" points="87.28 128.77 87.28 124.56 90.93 122.45 94.57 124.56 94.57 128.77 90.92 130.87 87.28 128.77"/>
        <path class="cls-7" d="M90.93,122.84l3.31,1.91v3.82l-3.31,1.91-3.31-1.91v-3.82l3.31-1.91m0-.79-4,2.3V129l4,2.3,4-2.3v-4.6l-4-2.3Z"/>
      </g>
      <g>
        <polygon class="cls-5" points="87.28 207.02 87.28 202.81 90.93 200.7 94.58 202.81 94.57 207.02 90.93 209.12 87.28 207.02"/>
        <path class="cls-7" d="M90.93,201.09,94.23,203v3.82l-3.31,1.91-3.31-1.91V203l3.31-1.91m0-.79-4,2.3v4.6l4,2.3,4-2.3v-4.6l-4-2.3Z"/>
      </g>
      <path class="cls-8" d="M90.93,162l3.31,1.91v3.82l-3.31,1.91-3.31-1.91v-3.82L90.93,162m0-.79-4,2.3v4.6l4,2.3,4-2.3v-4.6l-4-2.3Z"/>
      <g>
        <polygon class="cls-4" points="87.28 187.46 87.28 183.24 90.93 181.14 94.57 183.24 94.57 187.46 90.92 189.56 87.28 187.46"/>
        <path class="cls-8" d="M90.93,181.53l3.31,1.91v3.82l-3.31,1.91-3.31-1.91v-3.82l3.31-1.91m0-.79-4,2.3v4.6l4,2.3,4-2.3V183l-4-2.3Z"/>
      </g>
      <polygon class="cls-5" points="94.91 148.53 90.93 150.83 86.94 148.53 86.94 143.92 90.93 141.62 94.91 143.92 94.91 148.53"/>
      <polygon class="cls-4" points="94.91 109.4 90.93 111.7 86.94 109.4 86.94 104.8 90.93 102.49 94.91 104.8 94.91 109.4"/>
      <polygon class="cls-7" points="94.91 226.78 90.93 229.08 86.94 226.78 86.94 222.17 90.93 219.87 94.91 222.17 94.91 226.78"/>
    </g>
  </g>
</svg>
