<svg xmlns="http://www.w3.org/2000/svg" viewBox="0 0 181.88 338.68">
  <defs>
    <style>
      .cls-1, .cls-10, .cls-11, .cls-2, .cls-9 {
        fill: none;
        stroke-width: 0.17px;
      }

      .cls-1, .cls-10, .cls-11, .cls-2, .cls-6, .cls-9 {
        stroke: #351b52;
        stroke-miterlimit: 10;
      }

      .cls-2 {
        stroke-dasharray: 1.37 1.37;
      }

      .cls-3 {
        fill: #fdb99b;
      }

      .cls-4, .cls-6 {
        fill: #8cff80;
      }

      .cls-5 {
        fill: #c1f7fc;
      }

      .cls-6 {
        stroke-width: 0.68px;
      }

      .cls-7 {
        fill: #351b52;
      }

      .cls-8 {
        fill: #f1fbfc;
      }

      .cls-9 {
        stroke-dasharray: 1.46 1.46;
      }

      .cls-10 {
        stroke-dasharray: 1.59 1.59;
      }

      .cls-11 {
        stroke-dasharray: 1.36 1.36;
      }

      .cls-12 {
        fill: #62398f;
      }
    </style>
  </defs>
  <title>data</title>
  <g id="_Layer_" data-name="&lt;Layer&gt;">
    <g>
      <g>
        <line class="cls-1" x1="91.02" y1="211.3" x2="91.02" y2="210.62"/>
        <line class="cls-2" x1="91.02" y1="209.25" x2="91.02" y2="10.4"/>
        <line class="cls-1" x1="91.02" y1="9.71" x2="91.02" y2="9.03"/>
      </g>
      <polygon class="cls-3" points="86.69 27.83 91.06 24.62 95.45 27.78 93.81 32.94 88.39 32.97 86.69 27.83"/>
      <polygon class="cls-4" points="86.69 47.96 91.06 44.76 95.45 47.91 93.81 53.07 88.39 53.1 86.69 47.96"/>
      <polygon class="cls-4" points="86.69 68.04 91.06 64.84 95.45 68 93.81 73.15 88.39 73.18 86.69 68.04"/>
      <polygon class="cls-5" points="86.69 87.62 91.06 84.41 95.45 87.57 93.81 92.73 88.39 92.76 86.69 87.62"/>
      <polygon class="cls-5" points="86.69 107.75 91.06 104.54 95.45 107.7 93.81 112.86 88.39 112.89 86.69 107.75"/>
      <polygon class="cls-5" points="86.69 127.83 91.06 124.63 95.45 127.78 93.81 132.94 88.39 132.97 86.69 127.83"/>
      <polygon class="cls-4" points="86.69 147.91 91.06 144.71 95.45 147.87 93.81 153.02 88.39 153.05 86.69 147.91"/>
      <polygon class="cls-6" points="86.69 167.79 91.06 164.59 95.45 167.74 93.81 172.9 88.39 172.93 86.69 167.79"/>
      <polygon class="cls-3" points="86.69 188.2 91.06 184.99 95.45 188.15 93.81 193.31 88.39 193.34 86.69 188.2"/>
      <polygon class="cls-7" points="86.69 208.29 91.06 205.09 95.45 208.24 93.81 213.4 88.39 213.43 86.69 208.29"/>
      <polygon class="cls-8" points="111.98 56.56 116.35 53.35 120.74 56.51 119.1 61.67 113.69 61.7 111.98 56.56"/>
      <g>
        <line class="cls-1" x1="115.39" y1="48.08" x2="114.71" y2="48.08"/>
        <line class="cls-9" x1="113.25" y1="48.08" x2="96.52" y2="48.08"/>
        <line class="cls-1" x1="95.79" y1="48.08" x2="95.11" y2="48.08"/>
      </g>
      <g>
        <line class="cls-1" x1="116" y1="68.16" x2="115.32" y2="68.16"/>
        <line class="cls-9" x1="113.86" y1="68.16" x2="97.12" y2="68.16"/>
        <line class="cls-1" x1="96.4" y1="68.16" x2="95.72" y2="68.16"/>
      </g>
      <g>
        <line class="cls-1" x1="116.3" y1="54.01" x2="116.3" y2="53.33"/>
        <line class="cls-10" x1="116.3" y1="51.74" x2="116.3" y2="49.37"/>
        <line class="cls-1" x1="116.3" y1="48.57" x2="116.3" y2="47.89"/>
      </g>
      <g>
        <line class="cls-1" x1="116.3" y1="68.32" x2="116.3" y2="67.64"/>
        <line class="cls-11" x1="116.3" y1="66.28" x2="116.3" y2="64.24"/>
        <line class="cls-1" x1="116.3" y1="63.56" x2="116.3" y2="62.88"/>
      </g>
      <polygon class="cls-12" points="86.69 7.8 91.06 4.6 95.45 7.76 93.81 12.92 88.39 12.94 86.69 7.8"/>
    </g>
  </g>
</svg>
