<svg xmlns="http://www.w3.org/2000/svg" viewBox="0 0 181.88 338.68">
  <defs>
    <style>
      .cls-1, .cls-10, .cls-11, .cls-12, .cls-13, .cls-2, .cls-3 {
        fill: none;
        stroke: #351b52;
        stroke-miterlimit: 10;
        stroke-width: 0.17px;
      }

      .cls-2 {
        stroke-dasharray: 1.36 1.36;
      }

      .cls-3 {
        stroke-dasharray: 1.34 1.34;
      }

      .cls-4 {
        fill: #8cff80;
      }

      .cls-5 {
        fill: #fdb99b;
      }

      .cls-6 {
        fill: #62398f;
      }

      .cls-7 {
        fill: #351b52;
      }

      .cls-8 {
        fill: #c1f7fc;
      }

      .cls-9 {
        fill: #f1fbfc;
      }

      .cls-10 {
        stroke-dasharray: 1.52 1.52;
      }

      .cls-11 {
        stroke-dasharray: 1.59 1.59;
      }

      .cls-12 {
        stroke-dasharray: 1.39 1.39;
      }

      .cls-13 {
        stroke-dasharray: 1.35 1.35;
      }
    </style>
  </defs>
  <title>data</title>
  <g id="_Layer_" data-name="&lt;Layer&gt;">
    <g>
      <g>
        <line class="cls-1" x1="90.99" y1="181.24" x2="90.99" y2="180.56"/>
        <line class="cls-2" x1="90.99" y1="179.2" x2="90.99" y2="11.26"/>
        <line class="cls-1" x1="90.99" y1="10.58" x2="90.99" y2="9.9"/>
      </g>
      <g>
        <line class="cls-1" x1="90.99" y1="242.65" x2="90.99" y2="241.97"/>
        <line class="cls-3" x1="90.99" y1="240.63" x2="90.99" y2="190.22"/>
        <line class="cls-1" x1="90.99" y1="189.55" x2="90.99" y2="188.87"/>
      </g>
      <polygon class="cls-4" points="95.05 70.2 91.06 72.5 87.07 70.2 87.07 65.59 91.06 63.29 95.05 65.59 95.05 70.2"/>
      <polygon class="cls-5" points="95.05 31.07 91.06 33.37 87.07 31.07 87.07 26.47 91.06 24.16 95.05 26.47 95.05 31.07"/>
      <polygon class="cls-4" points="95.05 50.63 91.06 52.94 87.07 50.63 87.07 46.03 91.06 43.73 95.05 46.03 95.05 50.63"/>
      <polygon class="cls-6" points="95.05 11.58 91.06 13.89 87.07 11.58 87.07 6.98 91.06 4.68 95.05 6.98 95.05 11.58"/>
      <g>
        <polygon class="cls-4" points="87.41 89.56 87.41 85.35 91.06 83.24 94.7 85.35 94.7 89.56 91.06 91.67 87.41 89.56"/>
        <path class="cls-7" d="M91.06,83.64l3.31,1.91v3.82l-3.31,1.91-3.31-1.91V85.55l3.31-1.91m0-.79-4,2.3v4.6l4,2.3,4-2.3v-4.6l-4-2.3Z"/>
      </g>
      <polygon class="cls-4" points="95.05 109.34 91.06 111.64 87.07 109.34 87.07 104.73 91.06 102.43 95.05 104.73 95.05 109.34"/>
      <polygon class="cls-4" points="95.05 128.95 91.06 131.26 87.07 128.95 87.07 124.35 91.06 122.05 95.05 124.35 95.05 128.95"/>
      <polygon class="cls-4" points="95.05 152.34 91.06 154.65 87.07 152.34 87.07 147.74 91.06 145.44 95.05 147.74 95.05 152.34"/>
      <polygon class="cls-8" points="74.43 152.34 70.44 154.65 66.45 152.34 66.45 147.74 70.44 145.44 74.43 147.74 74.43 152.34"/>
      <polygon class="cls-8" points="114.33 152.34 110.34 154.65 106.36 152.34 106.36 147.74 110.35 145.44 114.33 147.74 114.33 152.34"/>
      <path class="cls-4" d="M91.06,181.48l3.31,1.91v3.82l-3.31,1.91-3.31-1.91v-3.82l3.31-1.91m0-.79-4,2.3v4.6l4,2.3,4-2.3V183l-4-2.3Z"/>
      <polygon class="cls-8" points="73.32 168.04 69.33 170.34 65.34 168.04 65.34 163.43 69.33 161.13 73.32 163.43 73.32 168.04"/>
      <polygon class="cls-8" points="73.98 207.16 69.99 209.47 66.01 207.16 66.01 202.56 70 200.26 73.98 202.56 73.98 207.16"/>
      <polygon class="cls-9" points="95.05 226.79 91.06 229.1 87.07 226.79 87.07 222.19 91.06 219.89 95.05 222.19 95.05 226.79"/>
      <polygon class="cls-5" points="95.05 246.36 91.06 248.66 87.07 246.36 87.07 241.75 91.06 239.45 95.05 241.75 95.05 246.36"/>
      <g>
        <line class="cls-1" x1="70.41" y1="145.42" x2="70.41" y2="144.74"/>
        <line class="cls-10" x1="70.41" y1="143.22" x2="70.41" y2="140.94"/>
        <line class="cls-1" x1="70.41" y1="140.18" x2="70.41" y2="139.5"/>
      </g>
      <g>
        <line class="cls-1" x1="110.52" y1="145.42" x2="110.52" y2="144.74"/>
        <line class="cls-11" x1="110.52" y1="143.16" x2="110.52" y2="140.78"/>
        <line class="cls-1" x1="110.52" y1="139.99" x2="110.52" y2="139.31"/>
      </g>
      <g>
        <line class="cls-1" x1="109.61" y1="139.49" x2="108.93" y2="139.49"/>
        <line class="cls-12" x1="107.53" y1="139.49" x2="71.96" y2="139.49"/>
        <line class="cls-1" x1="71.27" y1="139.49" x2="70.59" y2="139.49"/>
      </g>
      <g>
        <line class="cls-1" x1="90.14" y1="165.59" x2="89.46" y2="165.59"/>
        <line class="cls-13" x1="88.11" y1="165.59" x2="75.26" y2="165.59"/>
        <line class="cls-1" x1="74.58" y1="165.59" x2="73.9" y2="165.59"/>
      </g>
      <g>
        <line class="cls-1" x1="90.14" y1="204.83" x2="89.46" y2="204.83"/>
        <line class="cls-13" x1="88.11" y1="204.83" x2="75.26" y2="204.83"/>
        <line class="cls-1" x1="74.58" y1="204.83" x2="73.9" y2="204.83"/>
      </g>
    </g>
  </g>
</svg>
