<svg xmlns="http://www.w3.org/2000/svg" viewBox="0 0 181.88 338.68">
  <defs>
    <style>
      .cls-1, .cls-11, .cls-12, .cls-2, .cls-3, .cls-4 {
        fill: none;
        stroke: #351b52;
        stroke-miterlimit: 10;
        stroke-width: 0.17px;
      }

      .cls-2 {
        stroke-dasharray: 1.41 1.41;
      }

      .cls-3 {
        stroke-dasharray: 1.36 1.36;
      }

      .cls-4 {
        stroke-dasharray: 1.36 1.36;
      }

      .cls-5 {
        fill: #fdb99b;
      }

      .cls-6 {
        fill: #62398f;
      }

      .cls-7 {
        fill: #8cff80;
      }

      .cls-8 {
        fill: #351b52;
      }

      .cls-9 {
        fill: #c1f7fc;
      }

      .cls-10 {
        fill: #f1fbfc;
      }

      .cls-11 {
        stroke-dasharray: 1.54 1.54;
      }

      .cls-12 {
        stroke-dasharray: 1.33 1.33;
      }
    </style>
  </defs>
  <title>data</title>
  <g id="_Layer_" data-name="&lt;Layer&gt;">
    <g>
      <g>
        <line class="cls-1" x1="122.45" y1="152.31" x2="121.77" y2="152.31"/>
        <line class="cls-2" x1="120.36" y1="152.31" x2="104.19" y2="152.31"/>
        <line class="cls-1" x1="103.49" y1="152.31" x2="102.81" y2="152.31"/>
      </g>
      <g>
        <line class="cls-1" x1="91.09" y1="12.32" x2="91.09" y2="13"/>
        <line class="cls-3" x1="91.09" y1="14.37" x2="91.09" y2="98.19"/>
        <line class="cls-1" x1="91.09" y1="98.87" x2="91.09" y2="99.55"/>
      </g>
      <g>
        <line class="cls-1" x1="102.64" y1="99.59" x2="102.64" y2="100.27"/>
        <line class="cls-4" x1="102.64" y1="101.63" x2="102.64" y2="209.4"/>
        <line class="cls-1" x1="102.64" y1="210.08" x2="102.64" y2="210.76"/>
      </g>
      <polygon class="cls-5" points="93.78 33.27 88.36 33.28 86.68 28.14 91.05 24.94 95.44 28.11 93.78 33.27"/>
      <polygon class="cls-6" points="93.81 13.03 88.4 13.1 86.67 7.97 91.01 4.73 95.42 7.86 93.81 13.03"/>
      <polygon class="cls-7" points="93.81 54.09 88.4 54.16 86.67 49.03 91.01 45.8 95.42 48.92 93.81 54.09"/>
      <polygon class="cls-7" points="93.81 74.32 88.4 74.39 86.67 69.26 91.01 66.03 95.42 69.15 93.81 74.32"/>
      <g>
        <polygon class="cls-7" points="87.07 89.73 91.01 86.79 95.03 89.63 93.56 94.33 88.64 94.39 87.07 89.73"/>
        <path class="cls-8" d="M91,87.21l3.61,2.56L93.31,94,88.89,94l-1.42-4.19L91,87.21m0-.84L86.67,89.6l1.74,5.13,5.41-.07,1.61-5.17L91,86.37Z"/>
      </g>
      <polygon class="cls-9" points="84.16 114.1 78.74 114.16 77.01 109.04 81.35 105.8 85.77 108.93 84.16 114.1"/>
      <polygon class="cls-7" points="105.49 114.1 100.08 114.16 98.34 109.04 102.68 105.8 107.1 108.93 105.49 114.1"/>
      <polygon class="cls-5" points="105.49 134.57 100.08 134.64 98.34 129.51 102.68 126.28 107.1 129.41 105.49 134.57"/>
      <polygon class="cls-10" points="105.49 173.67 100.08 173.73 98.34 168.6 102.68 165.37 107.1 168.5 105.49 173.67"/>
      <polygon class="cls-10" points="105.49 194.92 100.08 194.99 98.34 189.86 102.68 186.62 107.1 189.75 105.49 194.92"/>
      <polygon class="cls-7" points="105.49 214.3 100.08 214.36 98.34 209.24 102.68 206 107.1 209.13 105.49 214.3"/>
      <polygon class="cls-9" points="126.51 157.19 121.1 157.25 119.36 152.13 123.71 148.89 128.12 152.02 126.51 157.19"/>
      <g>
        <line class="cls-1" x1="81.36" y1="105.63" x2="81.36" y2="104.95"/>
        <line class="cls-11" x1="81.36" y1="103.4" x2="81.36" y2="101.09"/>
        <line class="cls-1" x1="81.36" y1="100.32" x2="81.36" y2="99.64"/>
      </g>
      <g>
        <line class="cls-1" x1="102.74" y1="99.7" x2="102.06" y2="99.7"/>
        <line class="cls-12" x1="100.73" y1="99.7" x2="82.76" y2="99.7"/>
        <line class="cls-1" x1="82.1" y1="99.7" x2="81.42" y2="99.7"/>
      </g>
    </g>
  </g>
</svg>
