<svg xmlns="http://www.w3.org/2000/svg" viewBox="0 0 181.88 338.68">
  <defs>
    <style>
      .cls-1, .cls-12, .cls-2, .cls-3, .cls-4 {
        fill: none;
        stroke: #351b52;
        stroke-miterlimit: 10;
        stroke-width: 0.17px;
      }

      .cls-2 {
        stroke-dasharray: 1.59 1.59;
      }

      .cls-3 {
        stroke-dasharray: 1.38 1.38;
      }

      .cls-4 {
        stroke-dasharray: 1.36 1.36;
      }

      .cls-5 {
        fill: #8cff80;
      }

      .cls-6 {
        fill: #fdb99b;
      }

      .cls-7 {
        fill: #62398f;
      }

      .cls-8 {
        fill: #351b52;
      }

      .cls-9 {
        fill: #c1f7fc;
      }

      .cls-10 {
        fill: #ff7f4c;
      }

      .cls-11 {
        fill: #f1fbfc;
      }

      .cls-12 {
        stroke-dasharray: 1.33 1.33;
      }
    </style>
  </defs>
  <title>data</title>
  <g id="_Layer_" data-name="&lt;Layer&gt;">
    <g>
      <g>
        <line class="cls-1" x1="111.45" y1="226.11" x2="111.45" y2="225.43"/>
        <line class="cls-2" x1="111.45" y1="223.84" x2="111.45" y2="221.46"/>
        <line class="cls-1" x1="111.45" y1="220.67" x2="111.45" y2="219.99"/>
      </g>
      <g>
        <line class="cls-1" x1="91.03" y1="329.42" x2="91.03" y2="328.74"/>
        <line class="cls-3" x1="91.03" y1="327.37" x2="91.03" y2="256.55"/>
        <line class="cls-1" x1="91.03" y1="255.86" x2="91.03" y2="255.18"/>
      </g>
      <g>
        <line class="cls-1" x1="131.14" y1="226.11" x2="131.14" y2="225.43"/>
        <line class="cls-2" x1="131.14" y1="223.84" x2="131.14" y2="221.46"/>
        <line class="cls-1" x1="131.14" y1="220.67" x2="131.14" y2="219.99"/>
      </g>
      <g>
        <line class="cls-1" x1="90.85" y1="12.17" x2="90.85" y2="12.85"/>
        <line class="cls-4" x1="90.85" y1="14.21" x2="90.85" y2="244.79"/>
        <line class="cls-1" x1="90.85" y1="245.47" x2="90.85" y2="246.15"/>
      </g>
      <polygon class="cls-5" points="93.95 73.01 90.64 74.22 87.44 72.74 86.23 69.43 87.71 66.23 91.02 65.02 94.22 66.5 95.43 69.81 93.95 73.01"/>
      <polygon class="cls-6" points="94.05 32.68 90.78 33.99 87.54 32.61 86.22 29.34 87.61 26.1 90.88 24.78 94.12 26.17 95.43 29.44 94.05 32.68"/>
      <polygon class="cls-5" points="86.23 49.67 87.46 46.37 90.67 44.9 93.97 46.13 95.43 49.34 94.2 52.64 90.99 54.11 87.69 52.88 86.23 49.67"/>
      <polygon class="cls-7" points="94.05 12.47 90.78 13.78 87.54 12.39 86.22 9.12 87.61 5.88 90.88 4.57 94.12 5.96 95.43 9.23 94.05 12.47"/>
      <g>
        <polygon class="cls-5" points="87.77 92.67 86.59 89.64 87.9 86.67 90.92 85.5 93.89 86.81 95.06 89.83 93.76 92.8 90.73 93.97 87.77 92.67"/>
        <path class="cls-8" d="M90.92,85.87l2.71,1.19,1.07,2.76L93.5,92.53l-2.76,1.07L88,92.41,87,89.65l1.19-2.71,2.76-1.07m0-.74-3.29,1.28-1.42,3.22,1.28,3.29,3.22,1.42L94,93.07l1.42-3.22-1.28-3.29-3.22-1.42Z"/>
      </g>
      <polygon class="cls-9" points="94.01 133.3 90.73 134.57 87.5 133.15 86.23 129.87 87.65 126.64 90.93 125.37 94.16 126.79 95.43 130.07 94.01 133.3"/>
      <path class="cls-10" d="M90.8,246.8l2.74,1.11,1.15,2.73-1.11,2.74-2.73,1.15-2.74-1.11L87,250.7,88.07,248l2.73-1.15m0-.74-3.25,1.37-1.32,3.27L87.6,254l3.27,1.32,3.25-1.37,1.32-3.27-1.37-3.25-3.27-1.32Z"/>
      <polygon class="cls-9" points="93.96 213.81 90.66 215.04 87.45 213.57 86.23 210.27 87.7 207.06 91 205.84 94.2 207.31 95.43 210.61 93.96 213.81"/>
      <polygon class="cls-9" points="94.03 173.52 90.75 174.81 87.52 173.4 86.22 170.12 87.63 166.89 90.91 165.6 94.14 167.01 95.43 170.29 94.03 173.52"/>
      <polygon class="cls-9" points="93.99 193.67 90.7 194.92 87.48 193.48 86.23 190.19 87.67 186.97 90.96 185.72 94.18 187.16 95.43 190.45 93.99 193.67"/>
      <polygon class="cls-5" points="93.95 153.47 90.64 154.69 87.45 153.21 86.23 149.9 87.71 146.7 91.01 145.49 94.21 146.96 95.43 150.27 93.95 153.47"/>
      <g>
        <polygon class="cls-5" points="87.73 112.74 86.59 109.7 87.94 106.75 90.98 105.62 93.93 106.97 95.06 110.01 93.72 112.96 90.68 114.09 87.73 112.74"/>
        <path class="cls-8" d="M91,106l2.69,1.23,1,2.77-1.23,2.69-2.77,1L88,112.49l-1-2.77L88.19,107,91,106m0-.74-3.3,1.23-1.46,3.21,1.23,3.3,3.21,1.46,3.3-1.23L95.43,110l-1.23-3.3L91,105.25Z"/>
      </g>
      <polygon class="cls-5" points="95.43 270.89 94.07 274.14 90.8 275.47 87.56 274.11 86.22 270.84 87.59 267.59 90.86 266.26 94.1 267.63 95.43 270.89"/>
      <polygon class="cls-6" points="94.02 294.3 90.74 295.59 87.51 294.18 86.22 290.9 87.64 287.67 90.92 286.38 94.15 287.79 95.43 291.07 94.02 294.3"/>
      <polygon class="cls-8" points="94.09 334.63 90.83 335.99 87.58 334.64 86.22 331.38 87.57 328.13 90.83 326.77 94.08 328.12 95.43 331.38 94.09 334.63"/>
      <polygon class="cls-5" points="94 233.89 90.71 235.16 87.49 233.72 86.23 230.44 87.66 227.22 90.95 225.95 94.17 227.38 95.43 230.67 94 233.89"/>
      <polygon class="cls-11" points="114.56 233.89 111.27 235.16 108.05 233.72 106.78 230.44 108.21 227.22 111.5 225.95 114.72 227.38 115.99 230.67 114.56 233.89"/>
      <polygon class="cls-11" points="134.26 233.89 130.97 235.16 127.75 233.72 126.49 230.44 127.92 227.22 131.21 225.95 134.43 227.38 135.69 230.67 134.26 233.89"/>
      <g>
        <line class="cls-1" x1="130.98" y1="220.18" x2="130.3" y2="220.18"/>
        <line class="cls-12" x1="128.97" y1="220.18" x2="92.34" y2="220.18"/>
        <line class="cls-1" x1="91.67" y1="220.18" x2="90.99" y2="220.18"/>
      </g>
      <polygon class="cls-5" points="95.43 311.15 94.17 314.44 90.94 315.87 87.66 314.6 86.23 311.38 87.49 308.09 90.72 306.66 94 307.93 95.43 311.15"/>
    </g>
  </g>
</svg>
