<svg xmlns="http://www.w3.org/2000/svg" viewBox="0 0 181.88 338.68">
  <defs>
    <style>
      .cls-1 {
        fill: #ff7f4c;
      }

      .cls-11, .cls-13, .cls-15, .cls-16, .cls-17, .cls-2, .cls-3, .cls-4, .cls-5, .cls-6, .cls-7 {
        fill: none;
        stroke: #351b52;
        stroke-miterlimit: 10;
      }

      .cls-13, .cls-15, .cls-16, .cls-17, .cls-2, .cls-3, .cls-4, .cls-5, .cls-6, .cls-7 {
        stroke-width: 0.17px;
      }

      .cls-3 {
        stroke-dasharray: 1.32 1.32;
      }

      .cls-4 {
        stroke-dasharray: 1.39 1.39;
      }

      .cls-5 {
        stroke-dasharray: 1.37 1.37;
      }

      .cls-6 {
        stroke-dasharray: 1.33 1.33;
      }

      .cls-7 {
        stroke-dasharray: 1.35 1.35;
      }

      .cls-8 {
        fill: #8cff80;
      }

      .cls-9 {
        fill: #fdb99b;
      }

      .cls-10 {
        fill: #62398f;
      }

      .cls-11 {
        stroke-width: 0.68px;
      }

      .cls-12 {
        fill: #351b52;
      }

      .cls-13 {
        stroke-dasharray: 1.27 1.27;
      }

      .cls-14 {
        fill: #f1fbfc;
      }

      .cls-15 {
        stroke-dasharray: 1.28 1.28;
      }

      .cls-16 {
        stroke-dasharray: 1.35 1.35;
      }

      .cls-17 {
        stroke-dasharray: 1.35 1.35;
      }
    </style>
  </defs>
  <title>data</title>
  <g id="_Layer_" data-name="&lt;Layer&gt;">
    <g>
      <path class="cls-1" d="M126.06,161.68l3.31,1.91v3.82l-3.31,1.91-3.31-1.91v-3.82l3.31-1.91m0-.79-4,2.3v4.6l4,2.3,4-2.3v-4.6l-4-2.3Z"/>
      <g>
        <line class="cls-2" x1="125.99" y1="131.13" x2="125.99" y2="131.81"/>
        <line class="cls-3" x1="125.99" y1="133.13" x2="125.99" y2="140.4"/>
        <line class="cls-2" x1="125.99" y1="141.06" x2="125.99" y2="141.74"/>
      </g>
      <g>
        <line class="cls-2" x1="125.99" y1="150.07" x2="125.99" y2="150.75"/>
        <line class="cls-4" x1="125.99" y1="152.14" x2="125.99" y2="159.77"/>
        <line class="cls-2" x1="125.99" y1="160.46" x2="125.99" y2="161.14"/>
      </g>
      <g>
        <line class="cls-2" x1="91.02" y1="131.22" x2="91.02" y2="131.9"/>
        <line class="cls-5" x1="91.02" y1="133.27" x2="91.02" y2="160.08"/>
        <line class="cls-2" x1="91.02" y1="160.77" x2="91.02" y2="161.45"/>
      </g>
      <g>
        <line class="cls-2" x1="91.02" y1="169.57" x2="91.02" y2="170.25"/>
        <line class="cls-6" x1="91.02" y1="171.59" x2="91.02" y2="224.3"/>
        <line class="cls-2" x1="91.02" y1="224.97" x2="91.02" y2="225.65"/>
      </g>
      <g>
        <line class="cls-2" x1="90.88" y1="8.84" x2="90.88" y2="9.52"/>
        <line class="cls-7" x1="90.88" y1="10.86" x2="90.88" y2="120.59"/>
        <line class="cls-2" x1="90.88" y1="121.27" x2="90.88" y2="121.95"/>
      </g>
      <polygon class="cls-8" points="94.86 70.05 90.87 72.35 86.89 70.05 86.89 65.44 90.87 63.14 94.86 65.44 94.86 70.05"/>
      <polygon class="cls-9" points="94.86 30.92 90.87 33.22 86.89 30.92 86.89 26.32 90.87 24.02 94.86 26.32 94.86 30.92"/>
      <polygon class="cls-8" points="94.86 50.48 90.87 52.79 86.89 50.48 86.89 45.88 90.87 43.58 94.86 45.88 94.86 50.48"/>
      <polygon class="cls-10" points="94.86 11.54 90.87 13.84 86.89 11.54 86.89 6.93 90.87 4.63 94.86 6.93 94.86 11.54"/>
      <polygon class="cls-8" points="94.86 89.61 90.87 91.91 86.89 89.61 86.89 85 90.87 82.7 94.86 85 94.86 89.61"/>
      <polygon class="cls-11" points="94.86 128.74 90.87 131.04 86.89 128.73 86.89 124.13 90.87 121.83 94.86 124.13 94.86 128.74"/>
      <polygon class="cls-9" points="94.86 187.65 90.87 189.96 86.89 187.65 86.89 183.05 90.87 180.75 94.86 183.05 94.86 187.65"/>
      <g>
        <polygon class="cls-8" points="87.22 167.66 87.22 163.45 90.87 161.34 94.52 163.45 94.52 167.66 90.87 169.77 87.22 167.66"/>
        <path class="cls-1" d="M90.87,161.74l3.31,1.91v3.82l-3.31,1.91-3.31-1.91v-3.82l3.31-1.91m0-.79-4,2.3v4.6l4,2.3,4-2.3v-4.6l-4-2.3Z"/>
      </g>
      <polygon class="cls-8" points="94.86 148.3 90.87 150.6 86.89 148.3 86.89 143.69 90.87 141.39 94.86 143.69 94.86 148.3"/>
      <polygon class="cls-9" points="94.86 109.17 90.87 111.47 86.89 109.17 86.89 104.57 90.87 102.27 94.86 104.57 94.86 109.17"/>
      <polygon class="cls-12" points="94.86 226.84 90.87 229.14 86.89 226.84 86.89 222.24 90.87 219.93 94.86 222.24 94.86 226.84"/>
      <g>
        <line class="cls-2" x1="125.99" y1="116.91" x2="125.99" y2="117.59"/>
        <line class="cls-13" x1="125.99" y1="118.86" x2="125.99" y2="120.77"/>
        <line class="cls-2" x1="125.99" y1="121.4" x2="125.99" y2="122.08"/>
      </g>
      <polygon class="cls-14" points="130.05 148.24 126.06 150.54 122.08 148.23 122.08 143.63 126.06 141.33 130.05 143.63 130.05 148.24"/>
      <polygon class="cls-11" points="130.05 128.87 126.06 131.17 122.08 128.87 122.08 124.26 126.06 121.96 130.05 124.26 130.05 128.87"/>
      <g>
        <line class="cls-2" x1="125.99" y1="169.64" x2="125.99" y2="170.32"/>
        <line class="cls-15" x1="125.99" y1="171.6" x2="125.99" y2="181.24"/>
        <line class="cls-2" x1="125.99" y1="181.88" x2="125.99" y2="182.56"/>
      </g>
      <polygon class="cls-12" points="130.05 187.36 126.06 189.66 122.08 187.36 122.08 182.76 126.06 180.45 130.05 182.76 130.05 187.36"/>
      <g>
        <line class="cls-2" x1="126.02" y1="116.83" x2="125.34" y2="116.83"/>
        <line class="cls-16" x1="123.99" y1="116.83" x2="92.14" y2="116.83"/>
        <line class="cls-2" x1="91.47" y1="116.83" x2="90.79" y2="116.83"/>
      </g>
      <polygon class="cls-8" points="94.86 207.28 90.87 209.58 86.89 207.28 86.89 202.67 90.87 200.37 94.86 202.67 94.86 207.28"/>
      <g>
        <line class="cls-2" x1="59.88" y1="126.29" x2="60.56" y2="126.29"/>
        <line class="cls-17" x1="61.91" y1="126.29" x2="85.62" y2="126.29"/>
        <line class="cls-2" x1="86.3" y1="126.29" x2="86.98" y2="126.29"/>
      </g>
      <polygon class="cls-14" points="51.88 128.47 55.87 130.78 59.85 128.47 59.85 123.87 55.87 121.57 51.88 123.87 51.88 128.47"/>
    </g>
  </g>
</svg>
