<svg xmlns="http://www.w3.org/2000/svg" viewBox="0 0 181.88 338.68">
  <defs>
    <style>
      .cls-1 {
        fill: #ffd0bd;
      }

      .cls-2, .cls-3 {
        fill: none;
        stroke: #351b52;
        stroke-miterlimit: 10;
        stroke-width: 0.17px;
      }

      .cls-3 {
        stroke-dasharray: 1.35 1.35;
      }

      .cls-4 {
        fill: #8cff80;
      }

      .cls-5 {
        fill: #c1f7fc;
      }

      .cls-6 {
        fill: #351b52;
      }

      .cls-7 {
        fill: #62398f;
      }
    </style>
  </defs>
  <title>data</title>
  <g id="sfondi-col">
    <rect class="cls-1" x="-4.62" y="-15.29" width="192.5" height="364.16"/>
  </g>
  <g id="_Layer_" data-name="&lt;Layer&gt;">
    <g>
      <g>
        <line class="cls-2" x1="90.86" y1="150.33" x2="90.86" y2="149.65"/>
        <line class="cls-3" x1="90.86" y1="148.3" x2="90.86" y2="14.09"/>
        <line class="cls-2" x1="90.86" y1="13.41" x2="90.86" y2="12.73"/>
      </g>
      <polygon class="cls-4" points="86.54 27.92 90.9 24.71 95.3 27.87 93.65 33.03 88.24 33.05 86.54 27.92"/>
      <polygon class="cls-4" points="86.54 48.05 90.9 44.84 95.3 48 93.65 53.16 88.24 53.19 86.54 48.05"/>
      <polygon class="cls-4" points="86.54 68.13 90.9 64.92 95.3 68.08 93.65 73.24 88.24 73.27 86.54 68.13"/>
      <polygon class="cls-4" points="86.54 87.7 90.9 84.5 95.3 87.66 93.65 92.82 88.24 92.84 86.54 87.7"/>
      <polygon class="cls-4" points="86.54 107.84 90.9 104.63 95.3 107.79 93.65 112.95 88.24 112.98 86.54 107.84"/>
      <polygon class="cls-5" points="86.54 127.92 90.9 124.71 95.3 127.87 93.65 133.03 88.24 133.06 86.54 127.92"/>
      <polygon class="cls-6" points="86.54 148 90.9 144.79 95.3 147.95 93.65 153.11 88.24 153.14 86.54 148"/>
      <path class="cls-7" d="M90.91,5.53,94.5,8.11l-1.35,4.22-4.43,0-1.39-4.2,3.57-2.62m0-.84-4.36,3.2L88.24,13l5.41,0L95.3,7.85,90.9,4.69Z"/>
    </g>
  </g>
</svg>
