<svg xmlns="http://www.w3.org/2000/svg" viewBox="0 0 181.88 338.68">
  <defs>
    <style>
      .cls-1 {
        fill: #ffd0bd;
      }

      .cls-12, .cls-13, .cls-14, .cls-2, .cls-3, .cls-4, .cls-5, .cls-6 {
        fill: none;
        stroke-miterlimit: 10;
      }

      .cls-12, .cls-13, .cls-14, .cls-2, .cls-3, .cls-4 {
        stroke: #351b52;
        stroke-width: 0.17px;
      }

      .cls-3 {
        stroke-dasharray: 1.32 1.32;
      }

      .cls-4 {
        stroke-dasharray: 1.35 1.35;
      }

      .cls-5, .cls-6 {
        stroke: #000;
        stroke-width: 0.19px;
      }

      .cls-6 {
        stroke-dasharray: 0.67 1.34;
      }

      .cls-7 {
        fill: #8cff80;
      }

      .cls-8 {
        fill: #351b52;
      }

      .cls-9 {
        fill: #f1fbfc;
      }

      .cls-10 {
        fill: #ff7f4c;
      }

      .cls-11 {
        fill: #c1f7fc;
      }

      .cls-12 {
        stroke-dasharray: 1.55 1.55;
      }

      .cls-13 {
        stroke-dasharray: 1.31 1.31;
      }

      .cls-14 {
        stroke-dasharray: 1.35 1.35;
      }

      .cls-15 {
        fill: #fdb99b;
      }

      .cls-16 {
        fill: #62398f;
      }
    </style>
  </defs>
  <title>data</title>
  <g id="sfondi-col">
    <rect class="cls-1" x="-5.87" y="-15.29" width="192.5" height="364.16"/>
  </g>
  <g id="Livello_1" data-name="Livello 1">
    <g>
      <g>
        <line class="cls-2" x1="90.99" y1="13.22" x2="90.99" y2="13.88"/>
        <line class="cls-3" x1="90.99" y1="15.21" x2="90.99" y2="181.22"/>
        <line class="cls-2" x1="90.99" y1="181.88" x2="90.99" y2="182.55"/>
      </g>
      <g>
        <line class="cls-2" x1="90.99" y1="184" x2="90.99" y2="184.66"/>
        <line class="cls-4" x1="90.99" y1="186.01" x2="90.99" y2="247.5"/>
        <line class="cls-2" x1="90.99" y1="248.18" x2="90.99" y2="248.84"/>
      </g>
      <g>
        <line class="cls-5" x1="53.55" y1="103.3" x2="53.55" y2="102.99"/>
        <line class="cls-6" x1="53.55" y1="101.65" x2="53.55" y2="98.3"/>
        <line class="cls-5" x1="53.55" y1="97.63" x2="53.55" y2="97.31"/>
      </g>
      <g>
        <line class="cls-5" x1="72.83" y1="103.3" x2="72.83" y2="102.99"/>
        <line class="cls-6" x1="72.83" y1="101.65" x2="72.83" y2="98.3"/>
        <line class="cls-5" x1="72.83" y1="97.63" x2="72.83" y2="97.31"/>
      </g>
      <g>
        <line class="cls-5" x1="112.11" y1="103.3" x2="112.11" y2="102.99"/>
        <line class="cls-6" x1="112.11" y1="101.65" x2="112.11" y2="98.3"/>
        <line class="cls-5" x1="112.11" y1="97.63" x2="112.11" y2="97.31"/>
      </g>
      <g>
        <polygon class="cls-7" points="89.08 131.21 86.88 128.38 87.71 124.89 90.97 123.36 94.19 124.96 94.95 128.47 92.68 131.25 89.08 131.21"/>
        <path class="cls-8" d="M91,123.73l2.93,1.45.69,3.2-2.07,2.54-3.27,0-2-2.58.76-3.18,3-1.39m0-.74-3.54,1.66-.91,3.81,2.41,3.09,3.91,0,2.47-3-.83-3.82L91,123Z"/>
      </g>
      <polygon class="cls-7" points="95.31 227.12 92.83 230.15 88.92 230.11 86.51 227.02 87.43 223.22 90.97 221.56 94.48 223.3 95.31 227.12"/>
      <polygon class="cls-9" points="116.56 227.12 114.09 230.15 110.17 230.11 107.77 227.02 108.68 223.22 112.22 221.56 115.73 223.3 116.56 227.12"/>
      <polygon class="cls-9" points="135.76 227.12 133.28 230.15 129.37 230.11 126.97 227.02 127.88 223.22 131.42 221.56 134.93 223.3 135.76 227.12"/>
      <polygon class="cls-7" points="95.31 167.95 92.83 170.98 88.92 170.94 86.51 167.85 87.43 164.05 90.97 162.39 94.48 164.13 95.31 167.95"/>
      <g>
        <polygon class="cls-7" points="89.08 190.31 86.88 187.48 87.71 183.98 90.97 182.46 94.19 184.05 94.95 187.56 92.68 190.35 89.08 190.31"/>
        <path class="cls-10" d="M91,182.83l2.93,1.45.69,3.2L92.52,190l-3.27,0-2-2.58.76-3.18,3-1.39m0-.74-3.54,1.66-.91,3.81,2.41,3.09,3.91,0,2.47-3-.83-3.82L91,182.09Z"/>
      </g>
      <polygon class="cls-11" points="95.31 148.25 92.83 151.28 88.92 151.24 86.51 148.16 87.43 144.35 90.97 142.69 94.48 144.43 95.31 148.25"/>
      <g>
        <polygon class="cls-7" points="89.08 111.51 86.88 108.68 87.71 105.19 90.97 103.66 94.19 105.26 94.95 108.77 92.68 111.55 89.08 111.51"/>
        <path class="cls-8" d="M91,104l2.93,1.45.69,3.2-2.07,2.54-3.27,0-2-2.58.76-3.18L91,104m0-.74L87.43,105l-.91,3.81,2.41,3.09,3.91,0,2.47-3L94.48,105,91,103.29Z"/>
      </g>
      <polygon class="cls-9" points="116.34 108.85 113.86 111.89 109.95 111.84 107.54 108.76 108.46 104.95 112 103.29 115.51 105.03 116.34 108.85"/>
      <polygon class="cls-9" points="77.17 108.85 74.69 111.89 70.78 111.84 68.38 108.76 69.29 104.95 72.83 103.29 76.34 105.03 77.17 108.85"/>
      <polygon class="cls-9" points="57.85 108.85 55.37 111.89 51.46 111.84 49.05 108.76 49.97 104.95 53.51 103.29 57.02 105.03 57.85 108.85"/>
      <polygon class="cls-8" points="95.31 246.82 92.83 249.85 88.92 249.81 86.51 246.72 87.43 242.92 90.97 241.26 94.48 243 95.31 246.82"/>
      <g>
        <line class="cls-2" x1="112.12" y1="221.56" x2="112.12" y2="220.9"/>
        <line class="cls-12" x1="112.12" y1="219.34" x2="112.12" y2="217.01"/>
        <line class="cls-2" x1="112.12" y1="216.24" x2="112.12" y2="215.57"/>
      </g>
      <g>
        <line class="cls-2" x1="131.4" y1="221.56" x2="131.4" y2="220.9"/>
        <line class="cls-12" x1="131.4" y1="219.34" x2="131.4" y2="217.01"/>
        <line class="cls-2" x1="131.4" y1="216.24" x2="131.4" y2="215.57"/>
      </g>
      <g>
        <line class="cls-2" x1="111.21" y1="97.5" x2="110.55" y2="97.5"/>
        <line class="cls-13" x1="109.24" y1="97.5" x2="54.9" y2="97.5"/>
        <line class="cls-2" x1="54.25" y1="97.5" x2="53.58" y2="97.5"/>
      </g>
      <g>
        <line class="cls-2" x1="131.56" y1="215.75" x2="130.89" y2="215.75"/>
        <line class="cls-14" x1="129.54" y1="215.75" x2="92.46" y2="215.75"/>
        <line class="cls-2" x1="91.79" y1="215.75" x2="91.12" y2="215.75"/>
      </g>
      <polygon class="cls-15" points="95.31 49.65 92.83 52.69 88.92 52.64 86.51 49.56 87.43 45.75 90.97 44.09 94.48 45.83 95.31 49.65"/>
      <polygon class="cls-16" points="95.31 10.26 92.83 13.29 88.92 13.24 86.51 10.16 87.43 6.35 90.97 4.7 94.48 6.43 95.31 10.26"/>
      <g>
        <polygon class="cls-7" points="89.08 32.61 86.88 29.78 87.71 26.29 90.97 24.76 94.19 26.36 94.95 29.87 92.68 32.65 89.08 32.61"/>
        <path class="cls-8" d="M91,25.13l2.93,1.45.69,3.2-2.07,2.54-3.27,0-2-2.58L88,26.52l3-1.39m0-.74-3.54,1.66-.91,3.81,2.41,3.09,3.91,0,2.47-3-.83-3.82L91,24.39Z"/>
      </g>
      <g>
        <polygon class="cls-7" points="89.08 72.01 86.88 69.18 87.71 65.68 90.97 64.16 94.19 65.76 94.95 69.27 92.68 72.05 89.08 72.01"/>
        <path class="cls-8" d="M91,64.53,93.89,66l.69,3.2-2.07,2.54-3.27,0-2-2.58L88,65.92l3-1.39m0-.74-3.54,1.66-.91,3.81,2.41,3.09,3.91,0,2.47-3-.83-3.82L91,63.79Z"/>
      </g>
      <polygon class="cls-15" points="95.31 89.16 92.83 92.19 88.92 92.14 86.51 89.06 87.43 85.25 90.97 83.59 94.48 85.33 95.31 89.16"/>
      <g>
        <polygon class="cls-15" points="89.08 210.08 86.88 207.25 87.71 203.75 90.97 202.23 94.19 203.82 94.95 207.34 92.68 210.12 89.08 210.08"/>
        <path class="cls-8" d="M91,202.6l2.93,1.45.69,3.2-2.07,2.54-3.27,0-2-2.58L88,204l3-1.39m0-.74-3.54,1.66-.91,3.81,2.41,3.09,3.91,0,2.47-3-.83-3.82L91,201.86Z"/>
      </g>
    </g>
  </g>
</svg>
