<?xml version="1.0" encoding="utf-8"?>
<!-- Generator: Adobe Illustrator 22.1.0, SVG Export Plug-In . SVG Version: 6.00 Build 0)  -->
<svg version="1.1" id="Livello_1" xmlns="http://www.w3.org/2000/svg" xmlns:xlink="http://www.w3.org/1999/xlink" x="0px" y="0px"
	 viewBox="0 0 946 1555" style="enable-background:new 0 0 946 1555;" xml:space="preserve">
<style type="text/css">
	.st0{fill:none;stroke:#F9918F;stroke-width:0.75;}
	.st1{fill:none;stroke:#CE5151;stroke-width:0.75;}
	.st2{fill:none;stroke:#F27BFF;stroke-width:0.75;}
	.st3{fill:none;stroke:#F6BBFF;stroke-width:0.75;}
	.st4{fill:none;stroke:#FFCB64;stroke-width:0.75;}
	.st5{fill:none;stroke:#FFE2B3;stroke-width:0.75;}
	.st6{fill:none;stroke:#FFE7B6;stroke-width:0.75;}
	.st7{fill:none;stroke:#F9DA9B;stroke-width:0.75;}
	.st8{fill:none;stroke:#FFEBCF;stroke-width:0.75;}
	.st9{fill:none;stroke:#FFBC27;stroke-width:0.75;}
	.st10{fill:none;stroke:#FFCC66;stroke-width:0.75;}
	.st11{fill:none;stroke:#FFD488;stroke-width:0.75;}
	.st12{fill:none;stroke:#7DC4EF;stroke-width:0.75;}
	.st13{fill:none;stroke:#B7EDA4;stroke-width:0.75;}
	.st14{fill:none;stroke:#A4E28D;stroke-width:0.75;}
	.st15{fill:none;stroke:#C7FFB0;stroke-width:0.75;}
	.st16{fill:none;stroke:#D4F7C6;stroke-width:0.75;}
	.st17{fill:none;stroke:#5FB247;stroke-width:0.75;}
	.st18{fill:none;stroke:#67BC50;stroke-width:0.75;}
	.st19{fill:none;stroke:#44A02D;stroke-width:0.75;}
	.st20{fill:none;stroke:#8CD375;stroke-width:0.75;}
	.st21{fill:none;stroke:#83CE6A;stroke-width:0.75;}
	.st22{fill:none;stroke:#FFEBCF;}
	.st23{fill:none;stroke:#FFD6A9;}
	.st24{fill:none;stroke:#C1F2AD;}
	.st25{fill:none;stroke:#D4F7C4;}
	.st26{fill:none;stroke:#E4F9D9;}
	.st27{fill:none;stroke:#A4E28D;}
	.st28{fill:none;stroke:#44A02D;}
	.st29{fill:none;stroke:#5FB247;}
	.st30{fill:none;stroke:#ACF9F3;}
	.st31{fill:none;stroke:#A2F4EC;}
	.st32{fill:none;stroke:#52E2DB;}
	.st33{fill:none;stroke:#7FEFE7;}
	.st34{fill:none;stroke:#FFC783;}
	.st35{fill:none;stroke:#FCBE7A;}
	.st36{fill:none;stroke:#FCC383;}
	.st37{fill:none;stroke:#F9D1A0;}
	.st38{fill:none;stroke:#FFE4C7;}
	.st39{fill:none;stroke:#FFE1C0;}
	.st40{fill:none;stroke:#B7B7B7;}
	.st41{fill:none;stroke:#CCCCCC;}
	.st42{fill:none;stroke:#A3A3A3;}
	.st43{fill:none;stroke:#E5E5E5;}
	.st44{fill:none;stroke:#999999;}
	.st45{fill:none;stroke:#AFAFAF;}
	.st46{fill:none;stroke:#FFC8C5;stroke-miterlimit:10;}
	.st47{fill:none;stroke:#FFE2E1;stroke-miterlimit:10;}
	.st48{fill:none;stroke:#FFBBB8;stroke-miterlimit:10;}
	.st49{fill:none;stroke:#FF6155;stroke-miterlimit:10;}
	.st50{fill:none;stroke:#F24138;stroke-miterlimit:10;}
	.st51{fill:none;stroke:#FF7C76;stroke-miterlimit:10;}
	.st52{fill:none;stroke:#FFD28A;}
	.st53{fill:none;stroke:#FFDBA1;}
	.st54{fill:none;stroke:#FFB845;}
	.st55{fill:none;stroke:#FFAC1A;}
	.st56{fill:none;stroke:#FFEBD2;}
	.st57{fill:none;stroke:#FFEED4;}
	.st58{fill:none;stroke:#FFFAF3;}
	.st59{fill:none;stroke:#FFF9F0;}
	.st60{fill:none;stroke:#FFDCA4;}
	.st61{fill:none;stroke:#FFE9C7;}
	.st62{fill:none;stroke:#FFF0DC;}
	.st63{fill:none;stroke:#FFCE80;}
	.st64{fill:none;stroke:#FFDEA9;}
	.st65{fill:none;stroke:#FFE1B0;}
	.st66{fill:none;stroke:#FFE2B8;}
	.st67{fill:none;stroke:#FFD99C;}
	.st68{fill:none;stroke:#FFF2DC;}
	.st69{fill:none;stroke:#FFF3E1;}
	.st70{fill:none;stroke:#FFE5BB;}
	.st71{fill:none;stroke:#FFC973;}
	.st72{fill:none;stroke:#FFCD7D;}
	.st73{fill:none;stroke:#FFDFAB;}
	.st74{fill:none;stroke:#FFFBF5;}
	.st75{fill:none;stroke:#FFEBCC;}
	.st76{fill:none;stroke:#FFF2DE;}
	.st77{fill:none;stroke:#C5EFC5;stroke-miterlimit:10;}
	.st78{fill:none;stroke:#9AD89A;stroke-miterlimit:10;}
	.st79{fill:none;stroke:#E7F7E7;stroke-miterlimit:10;}
	.st80{fill:none;stroke:#D3F4D3;stroke-miterlimit:10;}
	.st81{fill:none;stroke:#DAF2DA;stroke-miterlimit:10;}
	.st82{fill:none;stroke:#82BA72;}
	.st83{fill:none;stroke:#C0E2B5;}
	.st84{fill:none;stroke:#FFEFD2;}
	.st85{fill:none;stroke:#FFEECF;}
	.st86{fill:none;stroke:#FFC969;}
	.st87{fill:none;stroke:#FCD695;}
	.st88{fill:none;stroke:#FFBE3B;}
	.st89{fill:none;stroke:#FFC152;}
	.st90{fill:none;stroke:#FFE4B3;}
	.st91{fill:none;stroke:#FFE0B8;}
	.st92{fill:none;stroke:#FFC97B;}
	.st93{fill:none;stroke:#FFD9A6;}
	.st94{fill:none;stroke:#FFF1E1;}
	.st95{fill:none;stroke:#94C67F;}
	.st96{fill:none;stroke:#B6D8A7;}
	.st97{fill:none;stroke:#ABD398;}
	.st98{fill:none;stroke:#D9EFD0;}
	.st99{fill:none;stroke:#509B35;}
</style>
<g id="bg">
</g>
<g id="Facebook">
	<g id="redgeolocalized_2_">
		<g>
			<g>
				<path class="st0" d="M397.5,250.4c0.8,0,1.4,0.9,1.4,1.7s-0.6,1.6-1.4,1.6s-1.3-0.8-1.3-1.6S396.7,250.4,397.5,250.4z"/>
			</g>
			<circle id="placesyoucreated_x5F_jane_2_" class="st0" cx="622.3" cy="252.1" r="1.2"/>
		</g>
		<g>
			<g id="location_x5F_history_x5F_fra_2_">
				<path class="st0" d="M397.5,251.1c0.5,0,0.8,0.5,0.8,1s-0.3,0.9-0.8,0.9s-0.9-0.4-0.9-0.9S397.1,251.1,397.5,251.1z"/>
			</g>
			<circle id="location_x5F_history_x5F_jane_2_" class="st1" cx="622.3" cy="252.1" r="22.6"/>
			<circle id="your_x5F_location_x5F_history_x5F_moro_2_" class="st0" cx="179.3" cy="252.1" r="0.9"/>
		</g>
	</g>
	<g id="pink-private_x5F_conversations_2_">
		<circle id="messages_x5F_fra_6_" class="st2" cx="397.5" cy="252.1" r="24.9"/>
		<circle id="messages_x5F_jane_6_" class="st3" cx="622.3" cy="252.1" r="14"/>
	</g>
	<g id="yellow-interests_12_">
		<g id="pages_x5F_facebook_2_">
			<circle id="pages_x5F_fra_2_" class="st4" cx="397.5" cy="252.1" r="23"/>
			<circle id="pages_x5F_moro_2_" class="st5" cx="179.3" cy="252.1" r="11.7"/>
		</g>
		<g id="advertisers_x5F_facebook_2_">
			<g id="advertisters_x5F_you_x5F_interacted_x5F_fra_2_">
				<path class="st6" d="M397.5,246.8c2.8,0,5.2,2.5,5.2,5.3s-2.4,5-5.2,5s-5.2-2.2-5.2-5S394.7,246.8,397.5,246.8z"/>
			</g>
			<circle id="advertisers_x5F_you_x5F_interacted_x5F_jane_2_" class="st7" cx="622.3" cy="252.1" r="5"/>
			<circle id="advertisers_x5F_you_x5F_interacted_x5F_moro_2_" class="st8" cx="179.3" cy="252.1" r="4.2"/>
		</g>
		<g id="yoursearchhistory_x5F_facebook_2_">
			<circle id="your_x5F_search_x5F_history_x5F_fra_2_" class="st9" cx="397.5" cy="252.1" r="26.8"/>
			<circle id="your_x5F_search_x5F_history_x5F_jane_2_" class="st9" cx="622.3" cy="252.1" r="37.4"/>
			<circle id="your_x5F_search_x5F_history_x5F_moro_2_" class="st4" cx="179.3" cy="252.1" r="25.3"/>
		</g>
		<g id="followedpages_x5F_facebook_2_">
			<g>
				<g>
					<g id="followed_x5F_pages_x5F_fra_8_">
						<path class="st6" d="M397.5,251c0.7,0,1.4,0.5,1.4,1.1s-0.7,1-1.4,1s-1.1-0.4-1.1-1S396.9,251,397.5,251z"/>
					</g>
				</g>
			</g>
		</g>
		<g id="adinterest_x5F_facebook_2_">
			<g id="ads_x5F_interests_x5F_fra_2_">
				<path class="st4" d="M397.5,231.6c5.8,0,11.7,1.2,15.5,5s4.2,9.7,4.2,15.5c0,5.8-0.5,11.6-4.3,15.5c-3.8,3.8-9.6,4.3-15.5,4.3
					s-11.1-1.1-14.9-4.9s-5.4-9.1-5.4-14.9c0-5.8,2-10.6,5.9-14.4C387,233.9,391.7,231.6,397.5,231.6z"/>
			</g>
			<circle id="ads_x5F_interests_x5F_jane_2_" class="st10" cx="622.3" cy="252.1" r="11.4"/>
			<circle id="ads_x5F_interests_x5F_moro_2_" class="st11" cx="179.3" cy="252.1" r="15.2"/>
		</g>
	</g>
	<g id="blue-social_x5F_boundaries_2_">
		<g>
			<circle id="followers_x5F_fra_2_" class="st12" cx="397.5" cy="252.1" r="7.8"/>
			<circle id="followers_x5F_jane_2_" class="st12" cx="622.3" cy="252.1" r="0.9"/>
		</g>
		<g>
			<circle id="following_x5F_fra_2_" class="st12" cx="397.5" cy="252.1" r="2.1"/>
			<circle id="following_x5F_moro_2_" class="st12" cx="179.3" cy="252.1" r="1.5"/>
		</g>
		<g>
			<circle id="received_x5F_friends_x5F_req_x5F_fra_2_" class="st12" cx="397.5" cy="252.1" r="8.6"/>
			<circle id="received_x5F_friends_x5F_request_x5F_moro_2_" class="st12" cx="179.3" cy="252.1" r="1.7"/>
			<circle id="received_x5F_friends_x5F_req_x5F_jane_2_" class="st12" cx="622.3" cy="252.1" r="4.5"/>
		</g>
		<g>
			<g id="sent_x5F_friends_x5F_request_x5F_fra_2_">
				<path class="st12" d="M397.5,251c0.7,0,1.2,0.5,1.2,1.1s-0.6,1.1-1.2,1.1s-1.3-0.4-1.3-1.1S396.9,251,397.5,251z"/>
			</g>
			<circle id="sent_x5F_friends_x5F_request_x5F_moro_2_" class="st12" cx="179.3" cy="252.1" r="2.1"/>
		</g>
	</g>
	<g id="green-interactions_10_">
		<g id="yourevents_x5F_resps_x5F_facebook_2_">
			<circle id="youreventsresp_x5F_jane_2_" class="st13" cx="622.3" cy="252.1" r="5.2"/>
			<g id="your_x5F_eventsresp_x5F_fra_2_">
				<path class="st14" d="M397.5,232.5c5.4,0,10.4,2.1,13.9,5.6c3.6,3.6,5.9,8.5,5.9,13.9c0,5.4-2.1,10.5-5.7,14.1
					s-8.7,5.8-14.1,5.8s-10.5-2.3-14-5.8c-3.6-3.6-5.8-8.6-5.8-14c0-5.4,2.6-10.1,6.1-13.7C387.4,234.9,392.1,232.5,397.5,232.5z"/>
			</g>
			<g id="your_x5F_eventsresp_x5F_moro_2_">
				<path class="st13" d="M179.3,242.6c2.6,0,5.1,1,6.8,2.7s2.3,4.2,2.3,6.8s-0.8,4.8-2.5,6.5c-1.7,1.7-3.9,2.7-6.5,2.7
					s-4.8-1-6.5-2.7c-1.7-1.7-2.7-3.9-2.7-6.5s1.1-4.7,2.8-6.4S176.7,242.6,179.3,242.6z"/>
			</g>
		</g>
		<g id="yourevents_x5F_facebook_2_">
			<circle id="yourevents_x5F_fra_2_" class="st15" cx="397.5" cy="252.1" r="1.7"/>
			<circle id="yourevents_x5F_moro_2_" class="st16" cx="179.3" cy="252.1" r="1.5"/>
		</g>
		<g id="yourposts_x5F_facebook_2_">
			<g id="your-posts-fra_2_">
				<path class="st17" d="M397.5,204.7c5.3,0,10.5-1,15.2,0.5c4.9,1.6,8.4,5.7,12.5,8.7s9.6,4.7,12.6,8.9c3,4.1,2.8,9.8,4.5,14.8
					c1.5,4.8,4.8,9.3,4.8,14.6c0,5.3-2.4,10.1-4,14.8c-1.6,4.9-3.8,9.3-6.8,13.4c-3,4.1-5.5,9-9.6,12s-8.7,6.1-13.7,7.7
					c-4.8,1.5-10.3,2.1-15.6,2.1c-5.3,0-10.1-2.7-14.9-4.2c-4.9-1.6-10.8-1.8-14.9-4.8s-7.1-7.9-10.1-12s-4.7-9.1-6.3-14
					c-1.5-4.8-1.2-9.7-1.2-15s-1.7-10.7-0.2-15.5c1.6-4.9,6.6-8.1,9.6-12.2c3-4.1,6-7.8,10.1-10.8s8-6,13-7.6
					C387.3,204.5,392.3,204.7,397.5,204.7z"/>
			</g>
			<circle id="yourposts-jane_2_" class="st18" cx="622.3" cy="252.1" r="61.5"/>
			<circle id="yourposts-moro_2_" class="st17" cx="179.3" cy="252.1" r="44.8"/>
		</g>
		<g id="postandcomments_x5F_facebook_2_">
			<g id="postsandcomments_x5F_fra_2_">
				<path class="st19" d="M397.5,169.4c4.8,0,9.3,3.4,13.8,4.2c4.7,0.8,9,2.2,13.3,3.8c4.4,1.6,9.6,1.6,13.7,3.9c4.1,2.4,7.4,6,11,9
					s8.6,4.9,11.7,8.5c3,3.6,5.8,7.8,8.2,11.9c2.3,4,3.1,9.1,4.8,13.6c1.6,4.4,5.1,8.6,5.9,13.3c0.8,4.5-1,9.7-1,14.5
					c0,4.8-1.2,9.5-2,14c-0.8,4.7,0.1,10-1.5,14.4s-5.3,8.2-7.6,12.2c-2.4,4.1-7.6,5.9-10.6,9.5s-3.6,9.5-7.2,12.5s-7.5,6-11.6,8.3
					c-4,2.3-8.2,5.1-12.7,6.8c-4.4,1.6-10.1-1.7-14.7-0.9c-4.5,0.8-8.8,2.3-13.6,2.3c-4.8,0-9.9,3.8-14.5,3c-4.7-0.8-7.6-7.9-12-9.4
					c-4.4-1.6-9.5-1.1-13.6-3.4c-4.1-2.4-10.2-2.2-13.8-5.2c-3.6-3-5.1-8.6-8.1-12.2s-3.5-8.8-5.8-12.8s-4.7-7.7-6.3-12.2
					c-1.6-4.4-4.2-8.3-5-13c-0.8-4.5,1.2-9.2,1.2-14s-1.6-9.3-0.8-13.9c0.8-4.7,2.6-8.9,4.2-13.2c1.6-4.4,2.6-9,5-13
					c2.4-4.1,3.7-9,6.8-12.5c3-3.6,8.1-5.2,11.7-8.2s6-7.9,10-10.2s9.4-1.9,13.9-3.5c4.4-1.6,8-6.8,12.7-7.6
					C387.6,169,392.8,169.4,397.5,169.4z"/>
			</g>
			<circle id="postsandcomments_x5F_jane_2_" class="st20" cx="622.3" cy="252.1" r="35.7"/>
			<circle id="postsandcomments_x5F_moro_2_" class="st19" cx="179.3" cy="252.1" r="70"/>
		</g>
		<g id="polls_x5F_facebook_2_">
			<g id="polls_x5F_fra_2_">
				<path class="st15" d="M397.5,250.8c0.7,0,1.4,0.6,1.4,1.3s-0.7,1.3-1.4,1.3s-1.1-0.6-1.1-1.3S396.9,250.8,397.5,250.8z"/>
			</g>
			<circle id="polls_x5F_moro_2_" class="st16" cx="179.3" cy="252.1" r="1.5"/>
		</g>
		<g id="comments_x5F_facebook_2_">
			<circle id="comments-fra_2_" class="st19" cx="397.5" cy="252.1" r="81.1"/>
			<circle id="comments-jane_2_" class="st19" cx="622.3" cy="252.1" r="77.3"/>
			<circle id="comments-moro_2_" class="st19" cx="179.3" cy="252.1" r="65.5"/>
		</g>
		<g id="photos_x5F_facebook_2_">
			<circle id="photos_x5F_jane_6_" class="st13" cx="622.3" cy="252.1" r="21.1"/>
			<circle id="photos_x5F_fra_6_" class="st21" cx="397.5" cy="252.1" r="35.8"/>
			<g id="photos-moro_2_">
				<path class="st13" d="M179.3,235.3c2.3,0,4.6,0.2,6.6,1s3.4,2.8,4.9,4.4c1.5,1.5,2.8,3.2,3.7,5.2c0.8,2,2.2,4,2.2,6.3
					s-0.7,4.6-1.5,6.6s-2.7,3.5-4.2,5.1c-1.5,1.5-3.3,2.7-5.3,3.6c-2,0.8-4,1.7-6.3,1.7s-4.2-1.2-6.1-2c-2-0.8-3.7-1.9-5.3-3.4
					c-1.5-1.5-3-3-3.8-5.1c-0.8-2-1.7-4.1-1.7-6.3c0-2.3,1-4.3,1.8-6.3s1.8-4,3.4-5.5c1.5-1.5,3.4-2.8,5.4-3.6
					C174.8,235.9,177,235.3,179.3,235.3z"/>
			</g>
		</g>
		<g id="events_x5F_invitation_x5F_facebook_2_">
			<g id="events-invitation-fra_2_">
				<path class="st21" d="M397.5,220.8c4.7,0,9.1-2.3,13.2-0.6c4.3,1.8,10.8,1.4,14,4.6c3.2,3.2,4.9,8.9,6.7,13.2
					c1.7,4.1,1.3,9.3,1.3,14.1c0,4.7-4.3,8-6,12.1c-1.8,4.3-1.4,9.3-4.6,12.5c-3.2,3.2-7.1,5.7-11.4,7.4c-4.1,1.7-8.6,6-13.3,6
					c-4.7,0-8.4-6.1-12.5-7.8c-4.3-1.8-12.2,0.9-15.4-2.3c-3.2-3.2-3.6-9.9-5.4-14.1c-1.7-4.1-2.8-9.1-2.8-13.8
					c0-4.7-1.9-10.9-0.2-15c1.8-4.3,6.5-8.3,9.7-11.5s8.6-4.7,12.9-6.4C388,217.5,392.8,220.8,397.5,220.8z"/>
			</g>
			<g id="events-invitation-moro_2_">
				<path class="st13" d="M179.3,234.7c2.5,0,4.4,0.6,6.6,1.5c2.2,0.9,4.7,1.3,6.4,3s3.4,3.6,4.3,5.8c0.9,2.2,1.5,4.7,1.5,7.2
					s-0.8,4.9-1.7,7.1c-0.9,2.2-2.9,3.7-4.6,5.4c-1.7,1.7-3,4-5.2,5c-2.2,0.9-4.7,2.2-7.2,2.2s-5-1.3-7.2-2.2s-4.9-1.9-6.6-3.6
					c-1.7-1.7-1.3-4.9-2.2-7.1s-2-4.1-2-6.6s1.1-4.5,2-6.7s1.8-4.3,3.5-6s3.3-3.6,5.5-4.6C174.3,234,176.8,234.7,179.3,234.7z"/>
			</g>
		</g>
	</g>
</g>
<g id="instagram">
	<g id="yellow-interests_8_">
		<g id="saved_x5F_instagram_2_">
			<g id="saved_x5F_fra_1_">
				<path class="st22" d="M397.5,468.5c0.8,0,1.4,0.4,1.4,1.2s-0.6,1.5-1.4,1.5s-1.6-0.7-1.6-1.5S396.7,468.5,397.5,468.5z"/>
			</g>
			<circle id="saved_x5F_jane_1_" class="st23" cx="623.6" cy="466.7" r="6.4"/>
		</g>
		<g id="searches_x5F_instagram_2_">
			<g id="searches_x5F_fra_1_">
				<path class="st22" d="M397.5,464.9c3,0,5.4,1.9,5.4,4.8s-2.4,5.5-5.4,5.5s-5.6-2.5-5.6-5.5S394.6,464.9,397.5,464.9z"/>
			</g>
			<circle id="searches_x5F_jane_1_" class="st22" cx="623.6" cy="466.7" r="1.5"/>
			<circle id="searches_x5F_moro_1_" class="st22" cx="178.9" cy="469.7" r="0.8"/>
		</g>
	</g>
	<g id="green-interactions_5_">
		<g id="comments_x5F_instagram_2_">
			<circle id="comments_x5F_fra_1_" class="st24" cx="397.5" cy="469.7" r="15"/>
			<circle id="comments_x5F_jane_1_" class="st25" cx="623.6" cy="466.7" r="10.9"/>
			<g id="comments_x5F_moro_1_">
				<path class="st26" d="M178.9,462.7c4.2,0,7.9,2.9,7.9,7s-3.7,8.1-7.9,8.1s-7.2-3.9-7.2-8.1S174.7,462.7,178.9,462.7z"/>
			</g>
		</g>
		<g id="connections_x5F_instagram_2_">
			<g id="connections_x5F_fra_1_">
				<path class="st27" d="M397.5,436.8c4.6,0,8.4,1.3,12.4,3c4.2,1.7,8.9,2.3,12.1,5.5c3.1,3.1,7.1,6.5,8.8,10.7
					c1.7,4,0.4,9.2,0.4,13.8c0,4.6-1.7,8.5-3.4,12.5c-1.7,4.2-2.9,8.5-6.1,11.7c-3.1,3.1-7.7,3.9-11.8,5.6c-4,1.7-7.7,2.7-12.4,2.7
					c-4.6,0-8.9,0.3-12.9-1.4c-4.2-1.7-8.4-3.6-11.6-6.7c-3.1-3.1-5.6-7.2-7.3-11.3c-1.7-4-2.9-8.6-2.9-13.2s0.2-9.6,1.8-13.6
					c1.7-4.2,5.1-7.9,8.2-11.1c3.1-3.1,7.4-5.3,11.6-7C388.4,436.3,392.9,436.8,397.5,436.8z"/>
			</g>
			<circle id="connections_x5F_jane_1_" class="st27" cx="623.6" cy="466.7" r="22.4"/>
			<circle id="connections_x5F_moro_1_" class="st27" cx="178.9" cy="469.7" r="17.6"/>
		</g>
		<g id="likes_x5F_instagram_2_">
			<circle id="likes_x5F_fra_1_" class="st28" cx="397.5" cy="469.7" r="78.5"/>
			<circle id="likes_x5F_jane_1_" class="st29" cx="623.6" cy="466.7" r="36.8"/>
			<circle id="likes_x5F_moro_1_" class="st28" cx="178.9" cy="469.7" r="56.9"/>
		</g>
		<g id="messages_x5F_instagram_2_">
			<circle id="messages_x5F_fra_1_" class="st29" cx="397.5" cy="469.7" r="44.3"/>
			<circle id="messages_x5F_jane_1_" class="st29" cx="623.6" cy="466.7" r="31"/>
			<circle id="messages_x5F_moro_1_" class="st27" cx="178.9" cy="469.7" r="15.8"/>
		</g>
		<g id="photos_x5F_instagram_2_">
			<circle id="photos_x5F_fra_1_" class="st27" cx="397.5" cy="469.7" r="22.3"/>
			<circle id="photos_x5F_jane_1_" class="st27" cx="623.6" cy="466.7" r="15.9"/>
			<circle id="photos_x5F_moro_1_" class="st25" cx="178.9" cy="469.7" r="11.3"/>
		</g>
	</g>
	<g id="aqua-contents_2_">
		<g id="videos_x5F_instagram_2_">
			<circle id="videos_x5F_fra_1_" class="st30" cx="397.5" cy="469.7" r="1.9"/>
			<circle id="videos_x5F_jane_1_" class="st31" cx="623.6" cy="466.7" r="3.9"/>
			<g id="videos_x5F_moro_1_">
				<path class="st31" d="M178.9,468.9c0.5,0,0.9,0.4,0.9,0.8s-0.4,0.8-0.9,0.8s-0.9-0.3-0.9-0.8S178.5,468.9,178.9,468.9z"/>
			</g>
		</g>
		<g id="media_x5F_instagram_2_">
			<circle id="media_x5F_fra_1_" class="st32" cx="397.5" cy="469.7" r="24.2"/>
			<circle id="media_x5F_jane_1_" class="st33" cx="623.6" cy="466.7" r="17.6"/>
			<circle id="media_x5F_moro_1_" class="st33" cx="178.9" cy="469.7" r="13.2"/>
		</g>
	</g>
</g>
<g id="apple">
	<g id="yellow-interests_7_">
		<g id="store_x5F_redownload_x5F_apple_2_">
			<circle id="store-redownload-fra_1_" class="st34" cx="397.5" cy="669.6" r="28.9"/>
			<circle id="store-redownload-jane_1_" class="st35" cx="623.6" cy="669.6" r="28"/>
			<circle id="store-redownload-moro_1_" class="st36" cx="177.7" cy="669.6" r="18.1"/>
		</g>
		<g id="yourpodcasts_x5F_apple_2_">
			<circle id="yourpodcasts-fra_1_" class="st37" cx="397.5" cy="669.6" r="25.4"/>
			<circle id="yourpodcats-jane_1_" class="st38" cx="623.6" cy="669.6" r="1.8"/>
			<circle id="yourpodcasts-moro_1_" class="st39" cx="177.7" cy="669.6" r="1.8"/>
		</g>
		<g id="podcast_x5F_playlist_x5F_apple_2_">
			<circle id="podcast-playstate-fra_1_" class="st22" cx="397.5" cy="669.6" r="4.2"/>
			<circle id="podcast-playstate-jane_1_" class="st37" cx="623.6" cy="669.6" r="14.8"/>
			<g id="podcast-playstate-moro_1_">
				<path class="st37" d="M177.7,656.7c6.9,0,13,5.9,13,12.9s-6,12.3-13,12.3c-6.9,0-13.1-5.4-13.1-12.3S170.7,656.7,177.7,656.7z"
					/>
			</g>
		</g>
		<g id="bookmarks_x5F_apple_2_">
			<g id="bookmarks-fra_1_">
				<path class="st22" d="M397.5,667.3c1.2,0,2,1.1,2,2.3s-0.9,2.2-2,2.2c-1.2,0-1.9-1-1.9-2.2S396.4,667.3,397.5,667.3z"/>
			</g>
			<circle id="bookmarks-jane_1_" class="st38" cx="623.6" cy="669.6" r="1.6"/>
			<circle id="bookmarks-moro_1_" class="st39" cx="177.7" cy="669.6" r="2.6"/>
		</g>
		<g id="silver-personal_4_">
			<g id="callhistory_x5F_apple_2_">
				<circle id="callhistory-fra_1_" class="st40" cx="397.5" cy="669.6" r="8.8"/>
				<circle id="callhistory-jane_1_" class="st41" cx="623.6" cy="669.6" r="10.8"/>
				<circle id="callhistory_x5F_moro_2_" class="st42" cx="177.7" cy="669.6" r="2.2"/>
			</g>
			<g id="health_x5F_apple_2_">
				<circle id="health-fra_1_" class="st43" cx="397.5" cy="669.6" r="68"/>
				<circle id="health_x5F_jane_1_" class="st43" cx="623.6" cy="669.6" r="84.1"/>
			</g>
			<g id="storefree_x5F_apple_2_">
				<circle id="store-free-trans-fra_1_" class="st40" cx="397.5" cy="669.6" r="7.5"/>
				<circle id="store-free-trans-jane_1_" class="st41" cx="623.6" cy="669.6" r="6.2"/>
			</g>
			<g id="storetransactions_x5F_apple_2_">
				<circle id="storetransactions-fra_1_" class="st44" cx="397.5" cy="669.6" r="2.4"/>
				<circle id="storetransactions-jane_1_" class="st42" cx="623.6" cy="669.6" r="3.4"/>
				<circle id="storetransactions-moro_1_" class="st42" cx="177.7" cy="669.6" r="5.7"/>
			</g>
			<g id="safari_x5F_apple_2_">
				<circle id="safari_x5F_moro_1_" class="st41" cx="177.7" cy="669.6" r="14.7"/>
				<g id="safari_x5F_fra_1_">
					<path class="st40" d="M397.5,659.4c5.6,0,9.7,4.7,9.7,10.2s-4.2,9.9-9.7,9.9c-5.6,0-10.2-4.3-10.2-9.9S392,659.4,397.5,659.4z"
						/>
				</g>
			</g>
		</g>
	</g>
</g>
<g id="google">
	<g id="silver-personal_1_">
		<circle class="st45" cx="180.3" cy="1343.6" r="2.3"/>
	</g>
	<g id="red-geolocalized_2_">
		<g id="labeled_x5F_places_2_">
			<circle id="labeled_x5F_places_x5F_fra_1_" class="st46" cx="396.1" cy="1343.6" r="1.1"/>
			<circle id="labeled_x5F_places_x5F_moro_1_" class="st47" cx="180.3" cy="1343.6" r="1.1"/>
			<circle id="labeled_x5F_places_x5F_jane_1_" class="st48" cx="623.6" cy="1343.6" r="1.4"/>
		</g>
		<g id="maps_x5F_myactivity_2_">
			<circle id="maps_x5F_fra_1_" class="st49" cx="396.1" cy="1343.6" r="28.3"/>
			<circle id="maps_x5F_moro_1_" class="st50" cx="180.3" cy="1343.6" r="60.6"/>
			<circle id="maps_x5F_jane_1_" class="st49" cx="623.6" cy="1343.6" r="28.7"/>
		</g>
		<g id="saved_x5F_places_2_">
			<circle id="saved_x5F_places_x5F_fra_1_" class="st51" cx="396.1" cy="1343.6" r="2.7"/>
			<circle id="saved_x5F_places_x5F_moro_1_" class="st47" cx="180.3" cy="1343.6" r="1.4"/>
		</g>
	</g>
	<g id="yellow-interests_4_">
		<g id="ads_x5F_myactivity_2_">
			<g id="ads_x5F_fra_1_">
				<path class="st52" d="M396.1,1320.1c4.5,0,8.6,0.2,12.2,2.3c3.8,2.2,8,4.5,10.1,8.3c2.1,3.6,2.8,8.4,2.8,12.9s-2.6,8.2-4.7,11.8
					c-2.2,3.8-4.8,6.6-8.6,8.7c-3.6,2.1-7.3,4.8-11.9,4.8c-4.5,0-8.8-1.6-12.5-3.8c-3.8-2.2-6.2-5.8-8.4-9.5
					c-2.1-3.6-4.6-7.5-4.6-12s1.7-8.9,3.8-12.5c2.2-3.8,5-7.8,8.7-9.9C386.8,1319,391.6,1320.1,396.1,1320.1z"/>
			</g>
			<circle id="ads_x5F_jane_1_" class="st53" cx="623.6" cy="1343.6" r="14.9"/>
		</g>
		<g id="browser_x5F_history_2_">
			<g id="browser_x5F_history_x5F_fra_1_">
				<path class="st54" d="M396.1,1242.5c5.1,0,10.1-3.8,15-3.1c5,0.7,7.9,8.8,12.6,10.1c4.8,1.4,14.9-11,19.4-8.9
					c4.6,2.1,2.1,17.3,6.3,20c4.2,2.7,9.2,3.2,13,6.5s6.1,7.2,9.4,11s14.9,1.4,17.6,5.6s-5.6,14.4-3.5,19c2.1,4.5,8.1,7,9.5,11.8
					c1.4,4.7,6,8.9,6.7,13.9c0.7,4.9-0.2,10.2-0.2,15.2c0,5.1,0,10.2-0.7,15.1c-0.7,5-2.4,9.9-3.8,14.6c-1.4,4.8-9,7-11.1,11.5
					c-2.1,4.6-3.1,8.9-5.8,13.1c-2.7,4.2-8.2,5.2-11.5,9s-1,12.2-4.8,15.5s-3.7,12.4-7.9,15.1c-4.2,2.7-14.4-5.4-19-3.3
					c-4.5,2.1-6.6,9.8-11.4,11.3c-4.7,1.4-10.4-1.7-15.4-1c-4.9,0.7-9.4-1.2-14.5-1.2s-11.2,13.1-16.1,12.4c-5-0.7-8.8-9.6-13.6-11
					c-4.8-1.4-7.4-8-11.9-10c-4.6-2.1-12.8,2.8-17,0.1c-4.2-2.7-1.9-13.7-5.7-16.9c-3.8-3.3-15.8,1.8-19.1-2
					c-3.3-3.8-4-10.1-6.7-14.3c-2.7-4.2-8.8-7.2-10.9-11.8c-2.1-4.5,6-13,4.6-17.8c-1.4-4.7-5-8.6-5.7-13.6
					c-0.7-4.9-5.6-9.6-5.6-14.7s6.2-9.6,6.9-14.5c0.7-5,5.8-8.2,7.2-13c1.4-4.8,2.5-8.7,4.5-13.2c2.1-4.6,0.3-10.4,3-14.6
					s-1.1-13.6,2.1-17.4c3.3-3.8,10.4-4.5,14.2-7.8c3.8-3.3,5.8-9.7,10-12.4c4.2-2.7,8-8.1,12.6-10.2c4.5-2.1,12.5,3.4,17.4,2
					c4.7-1.4,9.6-2.8,14.6-3.5C385.9,1238.3,391,1242.5,396.1,1242.5z"/>
			</g>
			<circle id="browser_x5F_history_x5F_moro_1_" class="st55" cx="180.3" cy="1343.6" r="157.4"/>
			<circle id="browser_x5F_history_x5F_jane_1_" class="st56" cx="623.6" cy="1343.6" r="3.7"/>
		</g>
		<g id="books_2_">
			<g id="books_x5F_fra_1_">
				<path class="st57" d="M396.1,1340.7c1.5,0,2.8,1.4,2.8,2.9s-1.3,2.6-2.8,2.6s-2.9-1.1-2.9-2.6S394.6,1340.7,396.1,1340.7z"/>
			</g>
			<g id="books_x5F_moro_1_">
				<path class="st58" d="M180.3,1340.6c1.8,0,2.9,1.2,2.9,3s-1.2,3.1-2.9,3.1s-3.3-1.4-3.3-3.1S178.5,1340.6,180.3,1340.6z"/>
			</g>
			<circle id="books_x5F_jane_1_" class="st59" cx="623.6" cy="1343.6" r="1.4"/>
		</g>
		<g id="news_2_">
			<g id="news_x5F_fra_1_">
				<path class="st60" d="M396.1,1327.7c4.3,0,7.9,2.4,10.7,5.2c2.8,2.8,3.9,6.5,3.9,10.7s-1.6,7.5-4.4,10.3s-6,5.5-10.3,5.5
					s-8.5-1.7-11.3-4.5s-5-7-5-11.3s2.2-8.5,5-11.3C387.6,1329.5,391.8,1327.7,396.1,1327.7z"/>
			</g>
			<circle id="news_x5F_moro_1_" class="st61" cx="180.3" cy="1343.6" r="14.2"/>
			<circle id="news_x5F_jane_1_" class="st62" cx="623.6" cy="1343.6" r="4.6"/>
		</g>
		<g id="bookmarks_2_">
			<g id="bookmarks_x5F_fra_1_">
				<path class="st57" d="M396.1,1340.9c1.7,0,3.5,1,3.5,2.7s-1.8,3.5-3.5,3.5s-3.3-1.8-3.3-3.5S394.4,1340.9,396.1,1340.9z"/>
			</g>
			<circle id="bookmarks_x5F_moro_1_" class="st58" cx="180.3" cy="1343.6" r="1.4"/>
			<circle id="bookmarks_x5F_jane_1_" class="st62" cx="623.6" cy="1343.6" r="2.5"/>
		</g>
		<g id="search_x5F_myactivity_2_">
			<g id="search_x5F_myactivity_x5F_fra_1_">
				<path class="st55" d="M396.1,1224.1c5,0,9.4,1.1,14.3,1.7c5,0.6,11.5-7.3,16.2-6.2c4.8,1.2,9.5,4.6,14.1,6.3
					c4.7,1.8,8.1,6.5,12.5,8.8s7.5,6.5,11.6,9.3s6.7,7,10.4,10.3c3.7,3.3,11.8,2.1,15.1,5.8c3.3,3.7,6.8,7.7,9.6,11.8
					c2.8,4.1-0.5,11.8,1.8,16.2c2.3,4.4,7.1,7.4,8.8,12c1.7,4.6,2,9.5,3.2,14.4c1.2,4.8,8.5,8.6,9.1,13.6c0.6,4.9-3.6,10.4-3.6,15.4
					s-2.7,9.7-3.3,14.5c-0.6,5-3.7,9-4.8,13.8c-1.2,4.8,4.9,11.9,3.2,16.5c-1.8,4.7-6,8.5-8.3,12.8c-2.3,4.4-6.2,7.9-9,12
					s-9,5.1-12.3,8.8c-3.3,3.7-2.9,10.8-6.6,14c-3.7,3.3-8.5,5.1-12.6,8c-4.1,2.8-8.2,5.4-12.6,7.7c-4.4,2.3-8,6.2-12.7,8
					c-4.6,1.7-9.9,1.4-14.8,2.6c-4.8,1.2-9,7-13.9,7.6s-10.3-7.6-15.3-7.6s-10.4,7.5-15.3,6.9c-5-0.6-10.5-0.7-15.3-1.8
					c-4.8-1.2-8.8-6.3-13.4-8.1c-4.7-1.8-8.5-5.2-12.9-7.5s-8.9-4.4-12.9-7.2c-4.1-2.8-5.4-8.7-9.1-12s-6.6-6.7-9.8-10.4
					c-3.3-3.7-13.3-2.2-16.1-6.2c-2.8-4.1,0.6-12-1.8-16.4c-2.3-4.4-3.6-8.8-5.4-13.5c-1.7-4.6-10.8-7.1-12-11.9s0.2-10.5-0.4-15.4
					s-0.4-10.1-0.4-15.1s0.8-10.1,1.4-15c0.6-5,3.8-9.4,5-14.2c1.2-4.8,1.5-9.9,3.2-14.5c1.8-4.7,8-7,10.3-11.4s4.9-8,7.7-12.1
					c2.8-4.1,4.4-8.5,7.7-12.2c3.3-3.7,4.2-9.6,7.9-12.9c3.7-3.3,8.8-4.7,12.9-7.5s8.6-4.5,12.9-6.8c4.4-2.3,7.3-7.7,11.9-9.4
					c4.6-1.7,10.3,0.2,15.2-1c4.8-1.2,9.2-3.3,14.2-3.9C386.3,1222.2,391.1,1224.1,396.1,1224.1z"/>
			</g>
			<circle id="search_x5F_myactivity_x5F_moro_1_" class="st63" cx="180.3" cy="1343.6" r="110.2"/>
			<circle id="search_x5F_myactivity_x5F_jane_1_" class="st55" cx="623.6" cy="1343.6" r="89.3"/>
		</g>
		<g id="search_x5F_history_2_">
			<circle id="search_x5F_history_x5F_fra_1_" class="st64" cx="396.1" cy="1343.6" r="41"/>
			<circle id="search_x5F_history_x5F_moro_1_" class="st65" cx="180.3" cy="1343.6" r="39.7"/>
			<circle id="search_x5F_history_x5F_jane_1_" class="st66" cx="623.6" cy="1343.6" r="12.4"/>
		</g>
		<g id="autofill_2_">
			<g id="autofill_x5F_fra_1_">
				<path class="st57" d="M396.1,1341.5c1.1,0,2.1,1,2.1,2.1s-0.9,2.1-2.1,2.1c-1.1,0-2.1-1-2.1-2.1S395,1341.5,396.1,1341.5z"/>
			</g>
			<g id="autofill_x5F_moro_1_">
				<path class="st58" d="M180.3,1341.7c1,0,1.7,0.9,1.7,1.9s-0.7,1.6-1.7,1.6s-1.8-0.6-1.8-1.6S179.3,1341.7,180.3,1341.7z"/>
			</g>
			<polygon id="autofill_x5F_jane_1_" class="st59" points="623.6,1343.6 623.6,1343.6 623.6,1343.6 			"/>
		</g>
		<g id="searche_x5F_engines_2_">
			<g id="search_x5F_engines_x5F_fra_1_">
				<path class="st67" d="M396.1,1336.4c4.2,0,7.3,3,7.3,7.2s-3.1,7.2-7.3,7.2s-7.4-3-7.4-7.2S391.9,1336.4,396.1,1336.4z"/>
			</g>
			<circle id="search_x5F_engines_x5F_moro_1_" class="st65" cx="180.3" cy="1343.6" r="20"/>
			<circle id="search_x5F_engines_x5F_jane_1_" class="st68" cx="623.6" cy="1343.6" r="6"/>
		</g>
		<g id="shopping_2_">
			<g id="shopping_x5F_fra_1_">
				<path class="st57" d="M396.1,1341.9c0.9,0,1.5,0.8,1.5,1.7s-0.6,1.5-1.5,1.5s-1.5-0.7-1.5-1.5S395.2,1341.9,396.1,1341.9z"/>
			</g>
			<circle id="shopping_x5F_moro_1_" class="st69" cx="180.3" cy="1343.6" r="7.2"/>
			<circle id="shopping_x5F_jane_1_" class="st66" cx="623.6" cy="1343.6" r="10.5"/>
		</g>
		<g id="video_x5F_search_2_">
			<g id="video_x5F_search_x5F_fra_1_">
				<path class="st70" d="M396.1,1328.2c4.3,0,8.2,1.6,10.9,4.4c2.8,2.8,4.4,6.7,4.4,10.9c0,4.2-1.6,8.2-4.4,11s-6.8,4.4-11,4.4
					c-4.3,0-8.1-1.7-10.9-4.5s-4.8-6.6-4.8-10.9s1.8-8.3,4.6-11.1S391.8,1328.2,396.1,1328.2z"/>
			</g>
			<circle id="video_x5F_search_x5F_moro_1_" class="st65" cx="180.3" cy="1343.6" r="32.6"/>
			<circle id="video_x5F_search_x5F_jane_1_" class="st59" cx="623.6" cy="1343.6" r="0.8"/>
		</g>
		<g id="watch_x5F_history_2_">
			<g id="watch_x5F_history_x5F_fra_1_">
				<path class="st71" d="M396.1,1279.4c4.7,0,9.3,2.9,13.7,3.9c4.6,1,9.6,1.3,13.7,3.2c4.2,2,8.2,4.9,11.8,7.8
					c3.6,2.9,4.8,8.2,7.7,11.8c2.9,3.6,7.3,6.2,9.3,10.3c2,4.1,1,9.2,2,13.8c1,4.4,4.7,8.6,4.7,13.3c0,4.7-4.1,8.8-5.1,13.2
					c-1,4.6-1.3,8.9-3.3,13.1s-4.2,8-7.1,11.6s-4.1,9.1-7.7,12s-8.3,4.8-12.5,6.8c-4.1,2-8.7,3.9-13.2,5c-4.4,1-9.4,0.6-14.1,0.6
					s-9.6,0-14-1c-4.6-1-8.6-3.8-12.7-5.8c-4.2-2-7.7-4.9-11.3-7.7c-3.6-2.9-8-5.1-10.8-8.7c-2.9-3.6-5.3-7.7-7.3-11.9
					c-2-4.1-4.1-8.5-5.1-13c-1-4.4,0.9-9.3,0.9-14s-0.3-9.2,0.7-13.6c1-4.6,3-8.6,5-12.7c2-4.2,4.2-8,7.1-11.6s4.8-8.3,8.4-11.2
					c3.6-2.9,8.8-3.2,13-5.2c4.1-2,7.6-6.1,12.1-7.1C386.5,1281.2,391.4,1279.4,396.1,1279.4z"/>
			</g>
			<circle id="watch_x5F_history_x5F_moro_1_" class="st72" cx="180.3" cy="1343.6" r="69"/>
			<circle id="watch_x5F_history_x5F_jane_1_" class="st73" cx="623.6" cy="1343.6" r="26.3"/>
		</g>
		<g id="favorites_2_">
			<circle id="favorites_x5F_fra_1_" class="st57" cx="396.1" cy="1343.6" r="4.6"/>
			<circle id="favorites_x5F_moro_1_" class="st58" cx="180.3" cy="1343.6" r="3"/>
			<circle id="favorites_x5F_jane_1_" class="st59" cx="623.6" cy="1343.6" r="1.4"/>
		</g>
		<g id="comments_2_">
			<circle id="my_x5F_comments_x5F_fra_1_" class="st57" cx="396.1" cy="1343.6" r="1.4"/>
			<circle id="my_x5F_comments_x5F_moro_1_" class="st74" cx="180.3" cy="1343.6" r="5.5"/>
		</g>
		<g id="playlists_3_">
			<g id="playlists_x5F_fra_1_">
				<path class="st57" d="M396.1,1341.3c1.3,0,2.3,1,2.3,2.3s-1,2.4-2.3,2.4s-2.3-1.1-2.3-2.4
					C393.8,1342.3,394.8,1341.3,396.1,1341.3z"/>
			</g>
			<circle id="playlists_x5F_moro_1_" class="st58" cx="180.3" cy="1343.6" r="1.9"/>
			<circle id="playlits_x5F_jane_1_" class="st75" cx="623.6" cy="1343.6" r="5.2"/>
		</g>
		<g id="subscriptions_2_">
			<circle id="subscriptions_x5F_fra_1_" class="st57" cx="396.1" cy="1343.6" r="3.9"/>
			<circle id="subscriptions_x5F_moro_1_" class="st76" cx="180.3" cy="1343.6" r="7.4"/>
			<circle id="subscriptions_x5F_jane_1_" class="st59" cx="623.6" cy="1343.6" r="1.1"/>
		</g>
	</g>
	<g id="green-interactions_4_">
		<g>
			<g id="g_x2B__x5F_posts_2_">
				<g id="g_x2B__x5F_posts_x5F_fra_1_">
					<path class="st77" d="M396.1,1339.3c2.3,0,3.7,2,3.7,4.3s-1.4,4.5-3.7,4.5c-2.3,0-4.5-2.2-4.5-4.5S393.8,1339.3,396.1,1339.3z"
						/>
				</g>
				<circle id="g_x2B__x5F_posts_x5F_moro_1_" class="st78" cx="180.3" cy="1343.6" r="6.5"/>
			</g>
			<g id="g_x2B__x5F_plus1_2_">
				<g id="plus1_x5F_fra_1_">
					<path class="st79" d="M396.1,1342.8c0.4,0,0.8,0.4,0.8,0.8s-0.4,0.7-0.8,0.7s-0.7-0.3-0.7-0.7
						C395.4,1343.2,395.7,1342.8,396.1,1342.8z"/>
				</g>
				<g id="plus1_x5F_moro_1_">
					<path class="st80" d="M180.3,1341.4c1.3,0,2.2,0.9,2.2,2.2c0,1.3-0.9,2.1-2.2,2.1s-2.4-0.8-2.4-2.1
						C177.9,1342.3,179,1341.4,180.3,1341.4z"/>
				</g>
			</g>
		</g>
		<g id="g_x2B__x5F_events_1_">
			<g>
				<path class="st81" d="M396.1,1342.6c0.6,0,1.2,0.4,1.2,1s-0.6,1.3-1.2,1.3s-1.2-0.7-1.2-1.3S395.5,1342.6,396.1,1342.6z"/>
			</g>
		</g>
	</g>
</g>
<g id="spotify">
	<g id="green-interactions_3_">
		<g id="follow-spotify-fra_2_">
			<path class="st82" d="M397.5,852.5c4.5,0,7.7,3.2,7.7,7.7s-3.2,8.2-7.7,8.2s-8.2-3.8-8.2-8.2S393.1,852.5,397.5,852.5z"/>
		</g>
		<circle id="follow-spotify-moro_2_" class="st83" cx="179.1" cy="861.2" r="4"/>
	</g>
	<g id="yellow-interests_3_">
		<g id="playlists_2_">
			<circle id="playlists-fra_2_" class="st84" cx="397.5" cy="860.2" r="4.6"/>
			<circle id="playlists-moro_2_" class="st85" cx="179.1" cy="861.2" r="2.5"/>
			<circle id="playlists-jane_2_" class="st85" cx="622" cy="860.4" r="1.2"/>
		</g>
		<g id="search-queries_2_">
			<g id="search-queries-fra_2_">
				<path class="st86" d="M397.5,850c5.2,0,10.2,5,10.2,10.2s-5,9.8-10.2,9.8s-10.1-4.6-10.1-9.8S392.4,850,397.5,850z"/>
			</g>
			<g id="search-queries-moro_2_">
				<path class="st87" d="M179.1,855.4c3.5,0,6.3,2.3,6.3,5.8s-2.8,6.8-6.3,6.8s-6.6-3.2-6.6-6.8S175.5,855.4,179.1,855.4z"/>
			</g>
		</g>
		<g id="streaming-history_2_">
			<g id="streaming-history-fra_2_">
				<path class="st88" d="M397.5,803.3c4.9,0,10,1.3,14.6,2.5c4.7,1.3,9.3,3.6,13.4,5.9c4.2,2.4,7.1,6.6,10.5,10s6.4,7,8.8,11.2
					c2.4,4.1,2.8,8.8,4.1,13.5c1.2,4.5,2.7,8.8,2.7,13.8c0,4.9,0,9.6-1.2,14.2c-1.3,4.7-2.1,9.6-4.5,13.7c-2.4,4.2-6.7,7-10.1,10.4
					s-6.3,7.4-10.5,9.8c-4.1,2.4-9.2,2.5-13.9,3.8c-4.5,1.2-9,4.9-13.9,4.9s-9.5-3.1-14.1-4.3c-4.7-1.3-9.1-2.8-13.2-5.2
					c-4.2-2.4-7.5-5.7-10.9-9.1c-3.4-3.4-6.9-6.6-9.3-10.8c-2.4-4.1-4-8.6-5.3-13.3c-1.2-4.5-1-9.2-1-14.1c0-4.9-2.3-10.1-1.1-14.7
					c1.3-4.7,4.4-8.9,6.8-13c2.4-4.2,5-8.5,8.4-11.9s6.9-7.4,11.1-9.8c4.1-2.4,9.6-2.4,14.3-3.7
					C387.9,805.9,392.6,803.3,397.5,803.3z"/>
			</g>
			<circle id="streaming-history-moro_2_" class="st88" cx="179.1" cy="861.2" r="41.2"/>
			<circle id="streaming-history-jane_2_" class="st85" cx="622" cy="860.4" r="3.8"/>
		</g>
		<g id="your-library_2_">
			<g id="your-library-fra_2_">
				<path class="st89" d="M397.5,839.7c5.4,0,10.7,2.7,14.3,6.2c3.5,3.5,6.2,8.9,6.2,14.3s-3,10.4-6.5,13.9s-8.5,5.4-13.9,5.4
					s-10.3-2-13.8-5.5s-5.9-8.4-5.9-13.8s1.8-10.9,5.3-14.5C386.6,842.2,392.2,839.7,397.5,839.7z"/>
			</g>
			<circle id="your-library-moro_2_" class="st86" cx="179.1" cy="861.2" r="12.3"/>
			<circle id="your-library-jane_2_" class="st58" cx="622" cy="860.4" r="0.8"/>
		</g>
	</g>
</g>
<g id="twitter">
	<g id="yellow-interests_1_">
		<g id="ad_x5F_engagements_x5F_twitter_2_">
			<circle id="ad_x5F_engagements_x5F_fra_2_" class="st90" cx="397.5" cy="1072" r="9.5"/>
			<circle id="ad_x5F_engagements_x5F_moro_2_" class="st91" cx="179" cy="1072" r="7.4"/>
		</g>
		<g id="ad_x5F_impressions_x5F_twitter_2_">
			<circle id="ad_x5F_impressions_x5F_fra_2_" class="st92" cx="397.5" cy="1072" r="51.4"/>
			<circle id="ad_x5F_impressions_x5F_moro_2_" class="st93" cx="179" cy="1072" r="12.3"/>
			<circle id="ad_x5F_impressions_x5F_jane_2_" class="st94" cx="622.3" cy="1071.8" r="1.9"/>
		</g>
		<g id="likes-twitter_2_">
			<circle id="likes-fra_2_" class="st55" cx="397.5" cy="1072" r="94.9"/>
			<circle id="likes-moro_2_" class="st92" cx="179" cy="1072" r="29.7"/>
			<circle id="likes-jane_2_" class="st94" cx="622.3" cy="1071.8" r="2.5"/>
		</g>
	</g>
	<g id="green-interactions_1_">
		<g id="followers-twitter_2_">
			<circle id="followers-fra_2_" class="st95" cx="397.5" cy="1072" r="24.6"/>
			<circle id="followers-moro_2_" class="st96" cx="179" cy="1072" r="9.5"/>
			<circle id="followers-jane_2_" class="st83" cx="622.3" cy="1071.8" r="3.1"/>
		</g>
		<g id="following-twitter_2_">
			<circle id="following-fra_4_" class="st83" cx="397.5" cy="1072" r="17.2"/>
			<circle id="following-moro_2_" class="st97" cx="179" cy="1072" r="14.3"/>
			<circle id="following-fra_1_" class="st98" cx="622.3" cy="1071.8" r="1.2"/>
		</g>
		<g id="tweets-twitter_2_">
			<circle id="tweets-fra_2_" class="st99" cx="397.5" cy="1072" r="92.8"/>
			<circle id="tweets-moro_2_" class="st95" cx="179" cy="1072" r="23.2"/>
			<circle id="tweets-jane_2_" class="st83" cx="622.3" cy="1071.8" r="1.9"/>
		</g>
	</g>
</g>
</svg>
