<?xml version="1.0" encoding="utf-8"?>
<!-- Generator: Adobe Illustrator 22.1.0, SVG Export Plug-In . SVG Version: 6.00 Build 0)  -->
<svg version="1.1" xmlns="http://www.w3.org/2000/svg" xmlns:xlink="http://www.w3.org/1999/xlink" x="0px" y="0px"
	 viewBox="0 0 1385.4 843.9" style="enable-background:new 0 0 1385.4 843.9;" xml:space="preserve">
<style type="text/css">
	.st0{fill:#62398F;}
	.st1{display:none;}
	.st2{display:inline;}
	.st3{fill:#EDECED;stroke:#979797;stroke-width:0.8069;}
	.st4{display:inline;fill:none;stroke:#000000;stroke-width:1.0839;stroke-miterlimit:10;}
	.st5{display:inline;fill:none;stroke:#000000;stroke-width:0.8786;stroke-miterlimit:10;}
	.st6{fill:url(#SVGID_1_);}
	.st7{fill:none;stroke:#BABDDF;stroke-width:0.3292;}
	.st8{fill:#6556A4;}
	.st9{fill:#BABDDF;}
	.st10{fill:#EE559D;}
	.st11{fill:#B91E6F;}
	.st12{fill:#F4A6C8;}
	.st13{fill:none;stroke:#BABDDF;stroke-width:0.806;}
	.st14{fill:#F396BF;}
	.st15{fill:none;stroke:#BABDDF;stroke-width:0.7334;}
	.st16{fill:#EE74AC;}
	.st17{fill:none;stroke:#BABDDF;stroke-width:0.9415;}
	.st18{fill:#F8C6DC;}
	.st19{fill:none;stroke:#BABDDF;stroke-width:0.8188;}
	.st20{fill:none;stroke:#BABDDF;stroke-width:0.8601;}
	.st21{fill:#E4A3C4;}
	.st22{fill:#FBE1EC;}
	.st23{fill:none;stroke:#BABDDF;stroke-width:10;}
	.st24{fill:none;stroke:#BABDDF;stroke-width:0.7;}
	.st25{fill:#FADBE9;stroke:#BABDDF;stroke-width:0.3292;}
	.st26{fill:#FADBE9;}
	.st27{fill:none;stroke:#BABDDF;stroke-width:0.8095;}
	.st28{fill:none;stroke:#BABDDF;stroke-width:0.7953;}
	.st29{fill:#CDCCFE;}
	.st30{font-family:'TradeGothicLH-Extended';}
	.st31{font-size:16.292px;}
	.st32{fill:none;stroke:#BABDDF;stroke-width:2;}
	.st33{fill:none;stroke:#6B5DA7;stroke-miterlimit:10;}
	.st34{fill:#FADBE9;stroke:#BABDDF;stroke-width:2;}
	.st35{font-size:16.3676px;}
	.st36{font-size:16.3675px;}
	.st37{font-size:16.3674px;}
	.st38{font-family:'Monda-Regular';}
	.st39{font-size:21px;}
	.st40{fill:#FFFCEB;}
	.st41{fill:none;stroke:#BABDDF;stroke-width:0.5101;}
	.st42{fill:#FADBE9;stroke:#BABDDF;stroke-width:0.2399;}
	.st43{fill:#FF5F27;}
	.st44{fill:#FF754A;}
	.st45{fill:#FF906E;}
	.st46{fill:none;stroke:#CBCBCA;stroke-width:2.2294;}
	.st47{fill:#BE6969;fill-opacity:0.9;}
	.st48{fill:#FFD0BD;}
	.st49{font-size:15px;}
	.st50{fill:none;stroke:#FFD0BD;stroke-width:0.5;stroke-miterlimit:10;}
	.st51{fill:none;stroke:#BABDDF;stroke-width:0.75;}
	.st52{fill:none;stroke:#BABDDF;stroke-width:0.75;stroke-dasharray:1.0017,1.0017,1.0017,1.0017;}
	.st53{fill:none;stroke:#BABDDF;stroke-width:0.75;stroke-dasharray:1.0017,1.0017,1.0017,1.0017,1.0017,1.0017;}
	.st54{fill:none;stroke:#BABDDF;stroke-width:0.75;stroke-dasharray:1.0128,1.0128,1.0128,1.0128;}
	.st55{fill:none;stroke:#BABDDF;stroke-width:0.75;stroke-dasharray:1.0128,1.0128,1.0128,1.0128,1.0128,1.0128;}
	.st56{fill:none;stroke:#BABDDF;stroke-width:0.75;stroke-dasharray:0.9891,0.9891,0.9891,0.9891;}
	.st57{fill:none;stroke:#BABDDF;stroke-width:0.75;stroke-dasharray:0.9891,0.9891,0.9891,0.9891,0.9891,0.9891;}
	.st58{fill:none;stroke:#BABDDF;stroke-width:0.75;stroke-dasharray:0.9981,0.9981,0.9981,0.9981;}
	.st59{fill:none;stroke:#BABDDF;stroke-width:0.75;stroke-dasharray:0.9981,0.9981,0.9981,0.9981,0.9981,0.9981;}
	.st60{fill:none;stroke:#BABDDF;stroke-width:0.75;stroke-dasharray:1.0087,1.0087,1.0087,1.0087;}
	.st61{fill:none;stroke:#BABDDF;stroke-width:0.75;stroke-dasharray:1.0087,1.0087,1.0087,1.0087,1.0087,1.0087;}
	.st62{fill:none;stroke:#BABDDF;stroke-width:0.75;stroke-dasharray:0.9983,0.9983,0.9983,0.9983;}
	.st63{fill:none;stroke:#BABDDF;stroke-width:0.75;stroke-dasharray:0.9983,0.9983,0.9983,0.9983,0.9983,0.9983;}
	.st64{fill:none;stroke:#BABDDF;stroke-width:0.75;stroke-dasharray:1.0113,1.0113,1.0113,1.0113;}
	.st65{fill:none;stroke:#BABDDF;stroke-width:0.75;stroke-dasharray:1.0113,1.0113,1.0113,1.0113,1.0113,1.0113;}
</style>
<g id="background">
</g>
<g id="raggi_nomi" class="st1">
</g>
<g id="Layer_1">
	<linearGradient id="SVGID_1_" gradientUnits="userSpaceOnUse" x1="794.9832" y1="145.7759" x2="1292.4194" y2="660.9777">
		<stop  offset="0" style="stop-color:#7F578F"/>
		<stop  offset="0.9997" style="stop-color:#62398F"/>
	</linearGradient>
	<rect x="815.9" y="69.4" class="st6" width="512.9" height="727.4"/>
	<g>
		<text transform="matrix(0.9331 0.3597 -0.3597 0.9331 69.0297 279.8645)" class="st29 st30 st31">user profile</text>
	</g>
	<line class="st32" x1="293.2" y1="462.8" x2="425.3" y2="330.7"/>
	<line class="st33" x1="287.9" y1="328.2" x2="208.6" y2="279.1"/>
	<line class="st34" x1="422.8" y1="463.1" x2="290.6" y2="330.1"/>
	<line class="st33" x1="289.6" y1="329.9" x2="240.8" y2="246.4"/>
	<line class="st33" x1="291.1" y1="331.4" x2="280.7" y2="223.2"/>
	<line class="st33" x1="291.1" y1="331.4" x2="184.6" y2="318.9"/>
	<line class="st33" x1="290.9" y1="331.2" x2="171" y2="363.3"/>
	<line class="st33" x1="291.1" y1="331.4" x2="168" y2="409.6"/>
	<line class="st33" x1="291.3" y1="331.6" x2="324.9" y2="208.9"/>
	<line class="st33" x1="290.9" y1="331.2" x2="371.2" y2="205.5"/>
	<line class="st33" x1="424.5" y1="331.7" x2="415.9" y2="213.7"/>
	<line class="st33" x1="424.9" y1="331.1" x2="458.3" y2="232.7"/>
	<line class="st33" x1="425.1" y1="330.9" x2="494.6" y2="261.4"/>
	<line class="st33" x1="424.7" y1="331.3" x2="523.8" y2="298.2"/>
	<line class="st33" x1="424.5" y1="331.5" x2="542.7" y2="340"/>
	<line class="st33" x1="551" y1="385.4" x2="423.8" y2="464.1"/>
	<line class="st33" x1="548.6" y1="432" x2="424.6" y2="464.9"/>
	<line class="st33" x1="533.5" y1="475.8" x2="424.6" y2="464.9"/>
	<line class="st33" x1="510.3" y1="514.6" x2="425" y2="465.3"/>
	<line class="st33" x1="478" y1="547.8" x2="424.6" y2="464.9"/>
	<line class="st33" x1="438.3" y1="572" x2="424.3" y2="464.6"/>
	<line class="st33" x1="394.7" y1="585.7" x2="424" y2="464.3"/>
	<line class="st33" x1="348.1" y1="588.5" x2="424.5" y2="464.8"/>
	<line class="st33" x1="303" y1="580" x2="290.5" y2="465.5"/>
	<line class="st33" x1="260.9" y1="561.2" x2="291" y2="465"/>
	<line class="st33" x1="225.7" y1="530.3" x2="291" y2="465"/>
	<line class="st33" x1="195.7" y1="496.5" x2="291.1" y2="464.5"/>
	<line class="st33" x1="175.8" y1="453.9" x2="291.2" y2="464.7"/>
	<g>
		<text transform="matrix(0.9979 -6.429000e-02 6.429000e-02 0.9979 94.1474 419.1274)" class="st29 st30 st31">health</text>
	</g>
	<g>
		<text transform="matrix(0.3536 -0.9354 0.9354 0.3536 283.9634 643.8846)" class="st29 st30 st31">videos</text>
	</g>
	<g>
		<text transform="matrix(0.5734 -0.8193 0.8193 0.5734 222.124 625.1702)" class="st29 st30 st31">images</text>
	</g>
	<g>
		<text transform="matrix(0.7947 -0.607 0.607 0.7947 187.0123 564.8849)" class="st29 st30 st31">text</text>
	</g>
	<g>
		<text transform="matrix(0.8741 -0.4858 0.4858 0.8741 117.7452 542.6685)" class="st29 st30 st31">generic</text>
	</g>
	<g>
		<text transform="matrix(0.9698 -0.2437 0.2437 0.9698 107.6245 474.8832)" class="st29 st30 st31">cloud</text>
	</g>
	<g>
		<text transform="matrix(0.9761 0.2173 -0.2173 0.9761 85.7499 347.3569)" class="st29 st30 st31">activity</text>
	</g>
	<g>
		<text transform="matrix(0.7966 0.6045 -0.6045 0.7966 102.7546 203.5671)" class="st29 st30 st31">device infos</text>
	</g>
	<g>
		<text transform="matrix(0.6311 0.7757 -0.7757 0.6311 172.0706 163.2067)" class="st29 st30 st31">contacts</text>
	</g>
	<g>
		<text transform="matrix(0.3956 0.9184 -0.9184 0.3956 223.1389 101.8751)" class="st29 st30 st35">saved items</text>
	</g>
	<g>
		<text transform="matrix(0.1653 0.9862 -0.9862 0.1653 301.2697 89.144)" class="st29 st30 st36">payments</text>
	</g>
	<g>
		<text transform="matrix(9.297000e-02 -0.9957 0.9957 9.297000e-02 377.5274 185.4491)" class="st29 st30 st36">geolocalization</text>
	</g>
	<g>
		<text transform="matrix(0.3353 -0.9421 0.9421 0.3353 429.6386 197.8647)" class="st29 st30 st36">chronology</text>
	</g>
	<g>
		<text transform="matrix(0.4896 -0.872 0.872 0.4896 475.2475 218.5676)" class="st29 st30 st36">lists of content</text>
	</g>
	<g>
		<text transform="matrix(0.7406 -0.6719 0.6719 0.7406 515.918 253.2745)" class="st29 st30 st36">searches</text>
	</g>
	<g>
		<text transform="matrix(0.8453 -0.5342 0.5342 0.8453 545.54 294.6449)" class="st29 st30 st36">apps</text>
	</g>
	<g>
		<text transform="matrix(0.9797 -0.2003 0.2003 0.9797 565.0519 343.7159)" class="st29 st30 st36">advertising</text>
	</g>
	<g>
		<text transform="matrix(0.9908 -0.1354 0.1354 0.9908 572.8288 388.2007)" class="st29 st30 st36">calls</text>
	</g>
	<g>
		<text transform="matrix(0.9916 0.1296 -0.1296 0.9916 568.9783 437.424)" class="st29 st30 st37">messages</text>
	</g>
	<g>
		<text transform="matrix(0.971 0.2392 -0.2392 0.971 555.6546 484.6294)" class="st29 st30 st36">social boundaries</text>
	</g>
	<g>
		<text transform="matrix(0.8604 0.5096 -0.5096 0.8604 527.4059 529.634)" class="st29 st30 st36">reactions</text>
	</g>
	<g>
		<text transform="matrix(0.5826 0.8127 -0.8127 0.5826 488.8464 568.1672)" class="st29 st30 st36">network</text>
	</g>
	<g>
		<text transform="matrix(0.2793 0.9602 -0.9602 0.2793 441.1381 594.5662)" class="st29 st30 st31">events</text>
	</g>
	<g>
		<text transform="matrix(8.122000e-02 0.9967 -0.9967 8.122000e-02 389.9639 609.4586)" class="st29 st30 st31">mail</text>
	</g>
	<g>
		<text transform="matrix(0.1899 -0.9818 0.9818 0.1899 340.1326 647.7145)" class="st29 st30 st31">posts</text>
	</g>
	<g>
		<text transform="matrix(1 0 0 1 266.3787 740.1744)" class="st9 st38 st39">PLATFORM NAME</text>
	</g>
	<g>
		<polygon class="st40" points="439.5,463.6 416.6,456.8 422.2,480.1 		"/>
	</g>
	<g>
		<path class="st40" d="M298.9,338.6c-1.4,1.9-3.5,3.2-6,3.7l-0.4,0.1c-5.5,1-10.7-2.7-11.6-8.1c-1-5.5,2.7-10.7,8.1-11.6l1.8,9.9
			l-1.7-9.9c5.4-1,10.7,2.6,11.7,8C301.4,333.6,300.6,336.5,298.9,338.6z"/>
	</g>
	<g>
		<polygon class="st40" points="436,335.5 434.6,322.1 421.4,319.3 414.7,331 423.7,341 		"/>
	</g>
	<g>
		<rect x="283.4" y="457.4" class="st40" width="14.8" height="14.8"/>
	</g>
	<polygon class="st29" points="552.4,377.9 546.4,388.3 558.4,388.3 	"/>
	<polygon class="st29" points="552.3,425.7 543,433.1 554.1,437.5 	"/>
	<polygon class="st29" points="540.2,470.1 529.4,475.2 539.2,482 	"/>
	<polygon class="st29" points="518.3,514 506.5,511.9 510.6,523.1 	"/>
	<polygon class="st29" points="485.9,548.5 475.3,543.1 475.9,555 	"/>
	<polygon class="st29" points="445.7,575.4 437.7,566.6 434.1,578 	"/>
	<polygon class="st29" points="400.4,591.4 395.8,580.3 388.5,589.8 	"/>
	<polygon class="st29" points="351.2,595.4 351.2,583.5 340.9,589.5 	"/>
	<path class="st29" d="M374.8,208.8c-1,1.3-2.5,2.1-4.3,2c0,0-0.1,0-0.1,0c-2.8-0.2-4.9-2.6-4.7-5.3c0.2-2.8,2.6-4.9,5.3-4.7l-0.3,5
		l0.4-5c2.8,0.2,4.9,2.5,4.7,5.3C375.7,207,375.4,208,374.8,208.8z"/>
	<path class="st29" d="M328.6,211.6c-0.7,0.9-1.8,1.6-3,1.9l-0.2,0c-2.7,0.5-5.3-1.3-5.8-4.1c-0.5-2.7,1.3-5.3,4.1-5.8l0.9,4.9
		l-0.9-4.9c2.7-0.5,5.3,1.3,5.9,4C329.9,209.1,329.5,210.6,328.6,211.6z"/>
	<path class="st29" d="M172.3,412.1c-0.9,1.1-2.2,1.9-3.7,2c-2.8,0.2-5.1-1.9-5.3-4.7l0-0.1c-0.2-2.8,1.9-5.1,4.7-5.3
		c2.8-0.2,5.1,1.9,5.3,4.7C173.4,410,173,411.2,172.3,412.1z"/>
	<path class="st29" d="M284.6,225.4c-0.5,0.6-1.1,1.1-1.8,1.5l-0.2,0.1c-2.5,1.1-5.5,0-6.6-2.6c-1.1-2.5,0-5.5,2.6-6.6l2,4.6l-2-4.6
		c2.5-1.2,5.5-0.1,6.7,2.4C286,222,285.7,224,284.6,225.4z"/>
	<path class="st29" d="M175,366c-1.1,1.5-3,2.3-4.9,1.9c-2.7-0.5-4.5-3.1-4-5.8l4.9,0.9l-4.9-1c0.5-2.7,3.1-4.6,5.8-4.1
		c2.7,0.5,4.6,3.1,4.1,5.8c0,0,0,0.1,0,0.1C175.7,364.7,175.4,365.4,175,366z"/>
	<path class="st29" d="M245.1,249.5c-0.3,0.3-0.5,0.6-0.9,0.9c-2.2,1.7-5.4,1.4-7.1-0.8c-1.7-2.2-1.4-5.3,0.8-7l0.1-0.1
		c2.2-1.7,5.3-1.3,7,0.8C246.5,245.1,246.4,247.7,245.1,249.5z"/>
	<path class="st29" d="M188.6,321.8c-1.4,1.8-3.9,2.5-6.1,1.6c-2.5-1.1-3.7-4-2.6-6.5c0,0,0.1-0.1,0.1-0.2c1.2-2.5,4.1-3.6,6.7-2.5
		c2.5,1.2,3.6,4.1,2.5,6.7C189,321.2,188.8,321.5,188.6,321.8z"/>
	<path class="st29" d="M212.5,282.2C212.4,282.2,212.4,282.2,212.5,282.2c-1.8,2.2-4.9,2.7-7.1,0.9c-2.2-1.7-2.6-4.8-0.9-6.9
		c0,0,0,0,0-0.1l0.1-0.1c1.7-2.2,4.9-2.6,7-0.8C213.7,276.9,214.1,280,212.5,282.2z"/>
	<polygon class="st29" points="463.3,237.1 464.8,230.5 458.9,227.1 453.9,231.6 456.6,237.8 	"/>
	<polygon class="st29" points="497.6,266.8 501.4,261.3 497.2,256 490.9,258.3 491.1,265 	"/>
	<polygon class="st29" points="524.4,303.8 529.9,299.9 527.8,293.5 521.1,293.5 519,299.9 	"/>
	<polygon class="st29" points="541,345.4 547.6,344 548.3,337.3 542.2,334.6 537.7,339.6 	"/>
	<polygon class="st29" points="421.7,215.8 419.5,209.4 412.8,209.5 410.8,216 416.3,219.8 	"/>
	
		<rect x="172.9" y="450.7" transform="matrix(0.7071 -0.7071 0.7071 0.7071 -269.6012 257.9728)" class="st29" width="7.4" height="7.4"/>
	
		<rect x="192" y="492.7" transform="matrix(0.4466 -0.8947 0.8947 0.4466 -335.8677 449.8847)" class="st29" width="7.4" height="7.4"/>
	
		<rect x="219.3" y="528.2" transform="matrix(0.1354 -0.9908 0.9908 0.1354 -334.185 680.8226)" class="st29" width="7.4" height="7.4"/>
	
		<rect x="257" y="557.6" transform="matrix(-0.359 -0.9333 0.9333 -0.359 -169.4934 1006.1219)" class="st29" width="7.4" height="7.4"/>
	
		<rect x="299.2" y="577" transform="matrix(-0.7534 -0.6575 0.6575 -0.7534 149.373 1217.3491)" class="st29" width="7.4" height="7.4"/>
	<text transform="matrix(1 0 0 1 387.1676 367.8775)" class="st29 st30 st31">interests</text>
	<text transform="matrix(1 0 0 1 369.9833 433.9059)" class="st29 st30 st31">interactions</text>
	<text transform="matrix(1 0 0 1 253.9019 433.979)" class="st29 st30 st31">contents</text>
	<text transform="matrix(1 0 0 1 252.6461 367.4428)" class="st29 st30 st31">personal</text>
	<line class="st32" x1="663.1" y1="358.3" x2="816.4" y2="358.3"/>
</g>
<g id="PLAT">
	<g>
		<g>
			<rect x="1093.4" y="631.9" class="st43" width="64.5" height="64.5"/>
		</g>
		<g>
			<rect x="1028.9" y="631.9" class="st44" width="64.5" height="64.5"/>
		</g>
		<g>
			<rect x="966.1" y="631.9" class="st45" width="64.5" height="64.5"/>
		</g>
		<g>
			<rect x="902.4" y="631.9" class="st40" width="64.5" height="64.5"/>
		</g>
	</g>
</g>
<g id="griglia" class="st1">
</g>
<g id="Isolation_Mode">
</g>
<g id="Layer_7">
	<g>
		<text transform="matrix(1 0 0 1 902.0093 488.0238)" class="st29 st30 st31">contents</text>
	</g>
	<g>
		<text transform="matrix(1 0 0 1 903.0093 722.0238)" class="st29 st30 st31">1- 3</text>
	</g>
	<g>
		<text transform="matrix(1 0 0 1 969.0093 722.0238)" class="st29 st30 st31">4 -10</text>
	</g>
	<g>
		<text transform="matrix(1 0 0 1 1030.8892 722.0238)" class="st29 st30 st31">11 - 20</text>
	</g>
	<g>
		<text transform="matrix(1 0 0 1 1103.0093 722.0238)" class="st29 st30 st31">21 - 30</text>
	</g>
	<g>
		<text transform="matrix(1 0 0 1 902.0093 289.8379)" class="st29 st30 st31">interests</text>
	</g>
	<g>
		<text transform="matrix(1 0 0 1 902.0093 191.7893)"><tspan x="0" y="0" class="st40 st30 st49">geolocalization, payments, </tspan><tspan x="0" y="18" class="st40 st30 st49">saved items, contacts, device infos, </tspan><tspan x="0" y="36" class="st40 st30 st49">user profile, activities, health</tspan></text>
	</g>
	<g>
		<text transform="matrix(1 0 0 1 902.0093 322.2828)"><tspan x="0" y="0" class="st40 st30 st49">chronology, lists of content, searches,</tspan><tspan x="0" y="18" class="st40 st30 st49">apps, advertising</tspan></text>
	</g>
	<g>
		<text transform="matrix(1 0 0 1 902.0093 419.7779)"><tspan x="0" y="0" class="st40 st30 st49">messages, social boundaries, reactions,</tspan><tspan x="0" y="18" class="st40 st30 st49">network, events, mail, posts</tspan></text>
	</g>
	<g>
		<text transform="matrix(1 0 0 1 902.0093 518.773)" class="st40 st30 st49">cloud, generic, text, images, videos</text>
	</g>
	<g>
		<text transform="matrix(1 0 0 1 902.0093 388.9306)" class="st29 st30 st31">interactions</text>
	</g>
	<g>
		<text transform="matrix(1 0 0 1 860.2272 121.5088)" class="st29 st30 st31">// type of data collected</text>
	</g>
	<g>
		<text transform="matrix(1 0 0 1 860.2272 574.4861)"><tspan x="0" y="0" class="st29 st30 st31">// quantity of collected data </tspan><tspan x="0" y="19.6" class="st29 st30 st31">for every category</tspan></text>
	</g>
	
		<rect x="862.1" y="477.9" transform="matrix(0.7071 -0.7071 0.7071 0.7071 -87.5399 754.7123)" class="st29" width="10.3" height="10.3"/>
	<g>
		<g>
			<text transform="matrix(1 0 0 1 899.0095 161.3554)" class="st29 st30 st31">personal</text>
		</g>
		<path class="st29" d="M872.8,160c-1.2,1.6-3,2.6-5.1,2.8c-3.9,0.2-7.2-2.6-7.4-6.5l0-0.2c-0.2-3.9,2.7-7.2,6.6-7.4
			c3.9-0.2,7.2,2.7,7.4,6.6C874.3,157,873.8,158.7,872.8,160z"/>
	</g>
	<polygon class="st29" points="871.8,292.1 874.8,283.2 867.3,277.6 859.6,283 862.4,292 	"/>
	<polygon class="st29" points="867.2,376.7 858.9,391.1 875.6,391.1 	"/>
</g>
</svg>
